<svg width="25" height="20" viewBox="0 0 25 20" fill="none" xmlns="http://www.w3.org/2000/svg">
<path d="M22.3906 0.15625H2.60938C1.44622 0.15625 0.5 1.10247 0.5 2.26562V9.29688C0.5 10.46 1.44622 11.4062 2.60938 11.4062H22.3906C23.5538 11.4062 24.5 10.46 24.5 9.29688V2.26562C24.5 1.10247 23.5538 0.15625 22.3906 0.15625ZM18.1719 4.375C18.5602 4.375 18.875 4.68981 18.875 5.07812C18.875 5.46644 18.5602 5.78125 18.1719 5.78125C17.7836 5.78125 17.4688 5.46644 17.4688 5.07812C17.4688 4.68981 17.7836 4.375 18.1719 4.375ZM20.9844 8.59375H4.01562C3.62698 8.59375 3.3125 8.27927 3.3125 7.89062C3.3125 7.50198 3.62698 7.1875 4.01562 7.1875H20.9844C21.373 7.1875 21.6875 7.50198 21.6875 7.89062C21.6875 8.27927 21.373 8.59375 20.9844 8.59375ZM20.9844 5.78125C20.5961 5.78125 20.2812 5.46644 20.2812 5.07812C20.2812 4.68981 20.5961 4.375 20.9844 4.375C21.3727 4.375 21.6875 4.68981 21.6875 5.07812C21.6875 5.46644 21.3727 5.78125 20.9844 5.78125ZM6.875 12.8125C6.48636 12.8125 6.17188 13.127 6.17188 13.5156V14.5902C6.17188 16.2615 5.24286 17.7639 3.74802 18.5117C3.40058 18.6854 3.25981 19.1077 3.43353 19.4551C3.51704 19.6218 3.6633 19.7486 3.84019 19.8075C4.01709 19.8665 4.21015 19.8529 4.37698 19.7696C6.35178 18.7822 7.57812 16.7978 7.57812 14.5902V13.5156C7.57812 13.127 7.26364 12.8125 6.875 12.8125ZM18.125 12.8125C17.7364 12.8125 17.4219 13.127 17.4219 13.5156V14.5902C17.4219 16.7978 18.6482 18.7822 20.623 19.7696C20.9736 19.9436 21.3935 19.8002 21.5665 19.4551C21.7402 19.1077 21.5994 18.6854 21.252 18.5117C19.7571 17.7639 18.8281 16.2615 18.8281 14.5902V13.5156C18.8281 13.127 18.5136 12.8125 18.125 12.8125ZM13.2031 19.1406V13.5156C13.2031 13.127 12.8886 12.8125 12.5 12.8125C12.1114 12.8125 11.7969 13.127 11.7969 13.5156V19.1406C11.7969 19.5293 12.1114 19.8438 12.5 19.8438C12.8886 19.8438 13.2031 19.5293 13.2031 19.1406ZM16.0156 19.1406V13.5156C16.0156 13.127 15.7011 12.8125 15.3125 12.8125C14.9239 12.8125 14.6094 13.127 14.6094 13.5156V19.1406C14.6094 19.5293 14.9239 19.8438 15.3125 19.8438C15.7011 19.8438 16.0156 19.5293 16.0156 19.1406ZM10.3906 19.1406V13.5156C10.3906 13.127 10.0761 12.8125 9.6875 12.8125C9.29886 12.8125 8.98438 13.127 8.98438 13.5156V19.1406C8.98438 19.5293 9.29886 19.8438 9.6875 19.8438C10.0761 19.8438 10.3906 19.5293 10.3906 19.1406Z" fill="white"/>
</svg>
