<svg width="25" height="24" viewBox="0 0 25 24" fill="none" xmlns="http://www.w3.org/2000/svg">
<path d="M17.4166 3.56V2C17.4166 1.59 17.0766 1.25 16.6666 1.25C16.2566 1.25 15.9166 1.59 15.9166 2V3.5H9.41661V2C9.41661 1.59 9.07661 1.25 8.66661 1.25C8.25661 1.25 7.91661 1.59 7.91661 2V3.56C5.21661 3.81 3.90661 5.42 3.70661 7.81C3.68661 8.1 3.92661 8.34 4.20661 8.34H21.1266C21.4166 8.34 21.6566 8.09 21.6266 7.81C21.4266 5.42 20.1166 3.81 17.4166 3.56Z" fill="#6C39FF"/>
<path d="M20.6666 9.83984H4.66663C4.11663 9.83984 3.66663 10.2898 3.66663 10.8398V16.9998C3.66663 19.9998 5.16663 21.9998 8.66663 21.9998H16.6666C20.1666 21.9998 21.6666 19.9998 21.6666 16.9998V10.8398C21.6666 10.2898 21.2166 9.83984 20.6666 9.83984ZM9.87663 18.2098C9.82663 18.2498 9.77663 18.2998 9.72663 18.3298C9.66663 18.3698 9.60663 18.3998 9.54663 18.4198C9.48663 18.4498 9.42663 18.4698 9.36663 18.4798C9.29663 18.4898 9.23663 18.4998 9.16663 18.4998C9.03663 18.4998 8.90663 18.4698 8.78663 18.4198C8.65663 18.3698 8.55663 18.2998 8.45663 18.2098C8.27663 18.0198 8.16663 17.7598 8.16663 17.4998C8.16663 17.2398 8.27663 16.9798 8.45663 16.7898C8.55663 16.6998 8.65663 16.6298 8.78663 16.5798C8.96663 16.4998 9.16663 16.4798 9.36663 16.5198C9.42663 16.5298 9.48663 16.5498 9.54663 16.5798C9.60663 16.5998 9.66663 16.6298 9.72663 16.6698C9.77663 16.7098 9.82663 16.7498 9.87663 16.7898C10.0566 16.9798 10.1666 17.2398 10.1666 17.4998C10.1666 17.7598 10.0566 18.0198 9.87663 18.2098ZM9.87663 14.7098C9.68663 14.8898 9.42663 14.9998 9.16663 14.9998C8.90663 14.9998 8.64663 14.8898 8.45663 14.7098C8.27663 14.5198 8.16663 14.2598 8.16663 13.9998C8.16663 13.7398 8.27663 13.4798 8.45663 13.2898C8.73663 13.0098 9.17663 12.9198 9.54663 13.0798C9.67663 13.1298 9.78663 13.1998 9.87663 13.2898C10.0566 13.4798 10.1666 13.7398 10.1666 13.9998C10.1666 14.2598 10.0566 14.5198 9.87663 14.7098ZM13.3766 18.2098C13.1866 18.3898 12.9266 18.4998 12.6666 18.4998C12.4066 18.4998 12.1466 18.3898 11.9566 18.2098C11.7766 18.0198 11.6666 17.7598 11.6666 17.4998C11.6666 17.2398 11.7766 16.9798 11.9566 16.7898C12.3266 16.4198 13.0066 16.4198 13.3766 16.7898C13.5566 16.9798 13.6666 17.2398 13.6666 17.4998C13.6666 17.7598 13.5566 18.0198 13.3766 18.2098ZM13.3766 14.7098C13.3266 14.7498 13.2766 14.7898 13.2266 14.8298C13.1666 14.8698 13.1066 14.8998 13.0466 14.9198C12.9866 14.9498 12.9266 14.9698 12.8666 14.9798C12.7966 14.9898 12.7366 14.9998 12.6666 14.9998C12.4066 14.9998 12.1466 14.8898 11.9566 14.7098C11.7766 14.5198 11.6666 14.2598 11.6666 13.9998C11.6666 13.7398 11.7766 13.4798 11.9566 13.2898C12.0466 13.1998 12.1566 13.1298 12.2866 13.0798C12.6566 12.9198 13.0966 13.0098 13.3766 13.2898C13.5566 13.4798 13.6666 13.7398 13.6666 13.9998C13.6666 14.2598 13.5566 14.5198 13.3766 14.7098ZM16.8766 18.2098C16.6866 18.3898 16.4266 18.4998 16.1666 18.4998C15.9066 18.4998 15.6466 18.3898 15.4566 18.2098C15.2766 18.0198 15.1666 17.7598 15.1666 17.4998C15.1666 17.2398 15.2766 16.9798 15.4566 16.7898C15.8266 16.4198 16.5066 16.4198 16.8766 16.7898C17.0566 16.9798 17.1666 17.2398 17.1666 17.4998C17.1666 17.7598 17.0566 18.0198 16.8766 18.2098ZM16.8766 14.7098C16.8266 14.7498 16.7766 14.7898 16.7266 14.8298C16.6666 14.8698 16.6066 14.8998 16.5466 14.9198C16.4866 14.9498 16.4266 14.9698 16.3666 14.9798C16.2966 14.9898 16.2266 14.9998 16.1666 14.9998C15.9066 14.9998 15.6466 14.8898 15.4566 14.7098C15.2766 14.5198 15.1666 14.2598 15.1666 13.9998C15.1666 13.7398 15.2766 13.4798 15.4566 13.2898C15.5566 13.1998 15.6566 13.1298 15.7866 13.0798C15.9666 12.9998 16.1666 12.9798 16.3666 13.0198C16.4266 13.0298 16.4866 13.0498 16.5466 13.0798C16.6066 13.0998 16.6666 13.1298 16.7266 13.1698C16.7766 13.2098 16.8266 13.2498 16.8766 13.2898C17.0566 13.4798 17.1666 13.7398 17.1666 13.9998C17.1666 14.2598 17.0566 14.5198 16.8766 14.7098Z" fill="#6C39FF"/>
</svg>
