<svg width="40" height="40" viewBox="0 0 40 40" fill="none" xmlns="http://www.w3.org/2000/svg">
<rect width="40" height="40" rx="20" fill="#6C39FF"/>
<path d="M30 18.9702V21.0302C30 21.5802 29.56 22.0302 29 22.0502H27.04C25.96 22.0502 24.97 21.2602 24.88 20.1802C24.82 19.5502 25.06 18.9602 25.48 18.5502C25.85 18.1702 26.36 17.9502 26.92 17.9502H29C29.56 17.9702 30 18.4202 30 18.9702Z" fill="white"/>
<path d="M28.47 23.55H27.04C25.14 23.55 23.54 22.12 23.38 20.3C23.29 19.26 23.67 18.22 24.43 17.48C25.07 16.82 25.96 16.45 26.92 16.45H28.47C28.76 16.45 29 16.21 28.97 15.92C28.75 13.49 27.14 11.83 24.75 11.55C24.51 11.51 24.26 11.5 24 11.5H15C14.72 11.5 14.45 11.52 14.19 11.56C11.64 11.88 10 13.78 10 16.5V23.5C10 26.26 12.24 28.5 15 28.5H24C26.8 28.5 28.73 26.75 28.97 24.08C29 23.79 28.76 23.55 28.47 23.55ZM21 17.75H15C14.59 17.75 14.25 17.41 14.25 17C14.25 16.59 14.59 16.25 15 16.25H21C21.41 16.25 21.75 16.59 21.75 17C21.75 17.41 21.41 17.75 21 17.75Z" fill="white"/>
</svg>
