<svg width="44" height="44" viewBox="0 0 44 44" fill="none" xmlns="http://www.w3.org/2000/svg">
<path d="M18.5 29H18C14 29 12 28 12 23V18C12 14 14 12 18 12H26C30 12 32 14 32 18V23C32 27 30 29 26 29H25.5C25.19 29 24.89 29.15 24.7 29.4L23.2 31.4C22.54 32.28 21.46 32.28 20.8 31.4L19.3 29.4C19.14 29.18 18.77 29 18.5 29Z" stroke="#6C39FF" stroke-width="1.5" stroke-miterlimit="10" stroke-linecap="round" stroke-linejoin="round"/>
<path d="M25.9965 21H26.0054" stroke="#6C39FF" stroke-width="2" stroke-linecap="round" stroke-linejoin="round"/>
<path d="M21.9955 21H22.0045" stroke="#6C39FF" stroke-width="2" stroke-linecap="round" stroke-linejoin="round"/>
<path d="M17.9945 21H18.0035" stroke="#6C39FF" stroke-width="2" stroke-linecap="round" stroke-linejoin="round"/>
<rect x="0.5" y="0.5" width="43" height="43" rx="21.5" stroke="#6C39FF" stroke-opacity="0.2"/>
</svg>
