<svg width="24" height="24" viewBox="0 0 24 24" fill="none" xmlns="http://www.w3.org/2000/svg">
<g clip-path="url(#clip0_101_718)">
<path d="M11.6754 8.54233H14.4581C14.5937 8.35952 14.7588 8.2006 14.9467 8.07209C14.811 8.01514 14.6933 7.92244 14.6061 7.80388C14.5189 7.68532 14.4655 7.54532 14.4516 7.39881C14.4377 7.25231 14.4638 7.10477 14.5271 6.97192C14.5904 6.83907 14.6886 6.72588 14.8112 6.64441C14.9337 6.56293 15.0761 6.51623 15.2231 6.50928C15.3701 6.50232 15.5162 6.53537 15.6459 6.6049C15.7756 6.67444 15.884 6.77785 15.9596 6.90413C16.0352 7.03041 16.0751 7.17483 16.0751 7.32199C16.0751 7.47576 16.0299 7.61813 15.9555 7.74098C15.9962 7.73854 16.034 7.72877 16.0751 7.72877C16.7369 7.72877 17.3202 8.05135 17.6916 8.54233H19.1487C19.0023 8.29609 18.9242 8.01525 18.9226 7.72877C18.9226 6.90179 19.5445 6.22491 20.3438 6.1224C20.2033 5.86888 19.9972 5.65773 19.7472 5.51098C19.4972 5.36423 19.2124 5.28726 18.9226 5.28809C17.9589 5.28809 17.5623 6.01908 17.5582 6.0264L17.2621 6.58735L16.8756 6.08457C16.6863 5.83621 16.4421 5.63506 16.1621 5.49688C15.882 5.3587 15.5738 5.28724 15.2615 5.28809C14.14 5.28809 13.2276 6.2005 13.2276 7.32199V7.72877H12.8209C12.5693 7.72958 12.3242 7.80821 12.1191 7.95387C11.914 8.09953 11.759 8.30509 11.6754 8.54233ZM14.8548 9.76267C14.8548 10.4355 15.4023 10.983 16.0751 10.983C16.7479 10.983 17.2954 10.4355 17.2954 9.76267C17.2954 9.08986 16.7479 8.54233 16.0751 8.54233C15.4023 8.54233 14.8548 9.08986 14.8548 9.76267ZM16.4819 9.76267C16.4819 9.87056 16.439 9.97402 16.3627 10.0503C16.2864 10.1266 16.183 10.1695 16.0751 10.1695C15.9672 10.1695 15.8637 10.1266 15.7875 10.0503C15.7112 9.97402 15.6683 9.87056 15.6683 9.76267C15.6683 9.65479 15.7112 9.55132 15.7875 9.47503C15.8637 9.39875 15.9672 9.35589 16.0751 9.35589C16.183 9.35589 16.2864 9.39875 16.3627 9.47503C16.439 9.55132 16.4819 9.65479 16.4819 9.76267ZM10.787 9.35589V10.1695H14.0823C14.0274 9.90104 14.0274 9.6243 14.0823 9.35589H10.787ZM6.71916 1.2203C6.71916 0.77162 6.35428 0.406738 5.9056 0.406738C5.45692 0.406738 5.09204 0.77162 5.09204 1.2203V3.66098H6.71916V1.2203ZM22.9903 9.35589H18.0679C18.0948 9.48728 18.109 9.62355 18.109 9.76267C18.109 9.83671 18.0948 9.90708 18.087 9.97908L18.2774 10.1695H22.9903V9.35589Z" fill="white"/>
<path d="M20.5497 8.5424C20.999 8.5424 21.3633 8.17816 21.3633 7.72884C21.3633 7.27953 20.999 6.91528 20.5497 6.91528C20.1004 6.91528 19.7361 7.27953 19.7361 7.72884C19.7361 8.17816 20.1004 8.5424 20.5497 8.5424Z" fill="white"/>
<path d="M22.1768 10.9831H19.091L22.1768 14.0689V10.9831ZM16.0751 11.7966C15.4133 11.7966 14.8299 11.4741 14.4586 10.9831H11.6005V19.1187C12.0492 19.1187 12.4141 19.4836 12.4141 19.9322V23.1865H20.9565C21.6293 23.1865 22.1768 22.6389 22.1768 21.9661V17.66L16.2915 11.7747C16.2195 11.7824 16.1491 11.7966 16.0751 11.7966ZM17.7946 10.8375C17.6309 11.0984 17.4103 11.3189 17.1494 11.4826L23.1437 17.4769C23.3034 17.4461 23.4501 17.3681 23.5651 17.2532C23.6801 17.1382 23.758 16.9914 23.7889 16.8318L17.7946 10.8375ZM0.210693 23.1865H11.6005V24H0.210693V23.1865ZM9.15985 19.1187H8.34629C8.34629 19.5674 7.9814 19.9322 7.53273 19.9322H4.27849C3.82981 19.9322 3.46493 19.5674 3.46493 19.1187H2.65137V20.7458H9.15985V19.1187ZM5.09205 4.47461H6.71917V17.4916H5.09205V4.47461ZM4.27849 18.3051H7.53273V19.1187H4.27849V18.3051Z" fill="white"/>
<path d="M9.97341 20.7458C9.97341 21.1945 9.60852 21.5594 9.15985 21.5594H2.65137C2.20269 21.5594 1.83781 21.1945 1.83781 20.7458V19.9323H0.210693V22.3729H11.6005V19.9323H9.97341V20.7458Z" fill="white"/>
<path d="M11.1937 5.69487C11.6431 5.69487 12.0073 5.33062 12.0073 4.88131C12.0073 4.43199 11.6431 4.06775 11.1937 4.06775C10.7444 4.06775 10.3802 4.43199 10.3802 4.88131C10.3802 5.33062 10.7444 5.69487 11.1937 5.69487Z" fill="white"/>
<path d="M16.0751 3.25424C16.9737 3.25424 17.7022 2.52575 17.7022 1.62712C17.7022 0.728486 16.9737 0 16.0751 0C15.1765 0 14.448 0.728486 14.448 1.62712C14.448 2.52575 15.1765 3.25424 16.0751 3.25424Z" fill="white"/>
<path d="M20.1429 2.44072C20.5922 2.44072 20.9565 2.07647 20.9565 1.62716C20.9565 1.17784 20.5922 0.813599 20.1429 0.813599C19.6936 0.813599 19.3293 1.17784 19.3293 1.62716C19.3293 2.07647 19.6936 2.44072 20.1429 2.44072Z" fill="white"/>
</g>
<defs>
<clipPath id="clip0_101_718">
<rect width="24" height="24" fill="white"/>
</clipPath>
</defs>
</svg>
