<svg width="25" height="22" viewBox="0 0 25 22" fill="none" xmlns="http://www.w3.org/2000/svg">
<path d="M9.37628 2.65009C9.22598 2.66784 9.08123 2.59529 8.99888 2.46834C8.55293 1.78079 7.77863 1.32539 6.90003 1.32539H6.71653C5.32438 1.32539 4.20198 2.45314 4.20403 3.84089L4.22453 20.6754H4.63643C4.84953 20.6754 5.03553 20.8363 5.04918 21.0489C5.05281 21.1036 5.04518 21.1584 5.02676 21.21C5.00834 21.2615 4.97953 21.3088 4.94211 21.3487C4.90469 21.3887 4.85945 21.4206 4.80921 21.4424C4.75897 21.4642 4.70479 21.4754 4.65003 21.4754H0.913629C0.700529 21.4754 0.514529 21.3145 0.500879 21.1018C0.497251 21.0472 0.504882 20.9924 0.5233 20.9408C0.541717 20.8893 0.57053 20.842 0.607951 20.802C0.645372 20.7621 0.690605 20.7302 0.740846 20.7084C0.791088 20.6866 0.845268 20.6754 0.900029 20.6754H3.42453L3.40403 3.84189C3.40198 2.01039 4.88308 0.525391 6.71653 0.525391H6.90003C8.06548 0.525391 9.09193 1.13279 9.67928 2.04749C9.82793 2.27904 9.70223 2.61154 9.37628 2.65009ZM9.80003 3.42539C8.25603 3.42539 7.00003 4.68139 7.00003 6.22539V6.92539C7.00003 7.14639 7.17903 7.32539 7.40003 7.32539H12.2C12.421 7.32539 12.6 7.14639 12.6 6.92539V6.22539C12.6 4.68139 11.344 3.42539 9.80003 3.42539ZM19.503 21.0637C19.4923 20.7133 19.499 19.9632 19.4999 18.1257C19.5 18.0731 19.4896 18.0211 19.4695 17.9725C19.4495 17.924 19.42 17.8799 19.3829 17.8427C19.3457 17.8055 19.3016 17.776 19.2531 17.7559C19.2045 17.7358 19.1525 17.7254 19.0999 17.7254H11.2001C11.1476 17.7254 11.0955 17.7358 11.047 17.7559C10.9985 17.776 10.9544 17.8055 10.9172 17.8427C10.8801 17.8799 10.8506 17.924 10.8305 17.9725C10.8104 18.0211 10.8001 18.0731 10.8001 18.1257C10.8011 19.9634 10.8078 20.7134 10.7971 21.0637C10.7902 21.2892 10.9713 21.4754 11.1969 21.4754H19.1032C19.3288 21.4754 19.5098 21.2892 19.503 21.0637ZM22.7065 14.4254H22.0935C21.1045 14.4254 20.3 15.2299 20.3 16.2189V21.0754C20.3 21.2964 20.479 21.4754 20.7 21.4754H22.7065C23.6955 21.4754 24.5 20.6709 24.5 19.6819V16.2189C24.5 15.2299 23.6955 14.4254 22.7065 14.4254ZM8.20653 14.4254H7.59353C6.60453 14.4254 5.80003 15.2299 5.80003 16.2189V19.6819C5.80003 20.6709 6.60453 21.4754 7.59353 21.4754H9.60003C9.82103 21.4754 10 21.2964 10 21.0754V16.2189C10 15.2299 9.19553 14.4254 8.20653 14.4254ZM14.35 9.67539H9.64203C8.45903 9.67539 7.50003 10.6344 7.50003 11.8174V13.2254C7.5 13.3314 7.5421 13.4331 7.61705 13.5082C7.69201 13.5832 7.79369 13.6253 7.89973 13.6254L8.20613 13.6254C9.63863 13.6254 10.8 14.7866 10.8 16.2191V16.5254C10.8 16.6315 10.8422 16.7333 10.9172 16.8083C10.9922 16.8833 11.0939 16.9254 11.2 16.9254H14.35C14.4561 16.9254 14.5579 16.8833 14.6329 16.8083C14.7079 16.7333 14.75 16.6315 14.75 16.5254V10.0754C14.75 10.0229 14.7397 9.97089 14.7196 9.92235C14.6995 9.87382 14.67 9.82971 14.6329 9.79257C14.5957 9.75542 14.5516 9.72595 14.5031 9.70584C14.4546 9.68574 14.4026 9.67539 14.35 9.67539ZM20.558 9.67539H15.95C15.8439 9.67539 15.7422 9.71753 15.6672 9.79255C15.5922 9.86756 15.55 9.9693 15.55 10.0754V16.5254C15.55 16.6315 15.5922 16.7332 15.6672 16.8082C15.7422 16.8832 15.8439 16.9254 15.95 16.9254H19.1C19.2061 16.9254 19.3079 16.8832 19.3829 16.8082C19.4579 16.7332 19.5 16.6315 19.5 16.5254V16.2189C19.5 14.7901 20.6622 13.6254 22.0935 13.6254H22.3C22.4061 13.6254 22.5079 13.5832 22.5829 13.5082C22.6579 13.4332 22.7 13.3315 22.7 13.2254V11.8174C22.7 10.6344 21.741 9.67539 20.558 9.67539Z" fill="white"/>
</svg>
