<svg width="24" height="24" viewBox="0 0 24 24" fill="none" xmlns="http://www.w3.org/2000/svg">
<path d="M11.556 5.38965H14.5684L11.1429 10.9606H15.8438L9.40369 17.8603L11.9402 12.6056H7.40625L11.556 5.38965Z" fill="white"/>
<path d="M11.556 5.38965L7.40625 12.6056H7.96875L12.1185 5.38965H11.556Z" fill="white"/>
<path d="M12.4221 1.8174L12.8121 1.5054C12.8713 1.4598 12.9208 1.40285 12.9578 1.33787C12.9948 1.2729 13.0184 1.20121 13.0274 1.12699C13.0363 1.05277 13.0304 0.977512 13.0099 0.905615C12.9894 0.833719 12.9548 0.766625 12.9081 0.708256C12.8614 0.649886 12.8035 0.601412 12.7379 0.565666C12.6722 0.529921 12.6001 0.507621 12.5257 0.500069C12.4514 0.492518 12.3762 0.499868 12.3047 0.521688C12.2332 0.543508 12.1668 0.579362 12.1093 0.627153L10.5853 1.84646C10.5215 1.89748 10.4697 1.96177 10.4332 2.03486C10.3968 2.10795 10.3768 2.1881 10.3744 2.26973C10.3721 2.35135 10.3876 2.43251 10.4198 2.50755C10.452 2.5826 10.5002 2.64972 10.5609 2.70428L12.0227 4.01603C12.1258 4.10876 12.2596 4.16 12.3983 4.15984C12.5121 4.15986 12.6233 4.12533 12.7171 4.06082C12.8109 3.9963 12.8829 3.90483 12.9237 3.79851C12.9644 3.69218 12.9719 3.576 12.9451 3.46532C12.9184 3.35465 12.8587 3.25469 12.774 3.17865L12.2936 2.74778C16.893 3.09128 20.5311 6.94065 20.5311 11.6263C20.5311 11.7506 20.5804 11.8698 20.6684 11.9577C20.7563 12.0456 20.8755 12.095 20.9998 12.095C21.1241 12.095 21.2434 12.0456 21.3313 11.9577C21.4192 11.8698 21.4686 11.7506 21.4686 11.6263C21.4688 6.46684 17.4782 2.22484 12.4221 1.8174ZM12.8364 20.5457L11.3747 19.2341C11.2633 19.137 11.1182 19.0877 10.9707 19.0967C10.8232 19.1058 10.6852 19.1725 10.5865 19.2825C10.4878 19.3925 10.4364 19.5368 10.4433 19.6844C10.4502 19.832 10.5149 19.971 10.6234 20.0713L11.1201 20.517C6.44325 20.2543 2.71875 16.3674 2.71875 11.6261C2.71875 11.5018 2.66936 11.3825 2.58146 11.2946C2.49355 11.2067 2.37432 11.1573 2.25 11.1573C2.12568 11.1573 2.00645 11.2067 1.91854 11.2946C1.83064 11.3825 1.78125 11.5018 1.78125 11.6261C1.78125 16.8302 5.84137 21.1014 10.9599 21.4449L10.5853 21.7447C10.5261 21.7903 10.4765 21.8473 10.4396 21.9122C10.4026 21.9772 10.3789 22.0489 10.37 22.1231C10.3611 22.1973 10.367 22.2726 10.3875 22.3445C10.4079 22.4164 10.4425 22.4835 10.4893 22.5419C10.536 22.6002 10.5938 22.6487 10.6595 22.6845C10.7251 22.7202 10.7973 22.7425 10.8716 22.75C10.946 22.7576 11.0211 22.7502 11.0926 22.7284C11.1641 22.7066 11.2306 22.6708 11.2881 22.623L12.8121 21.4037C12.8758 21.3526 12.9277 21.2883 12.9641 21.2152C13.0006 21.1421 13.0206 21.0619 13.023 20.9803C13.0253 20.8987 13.0098 20.8175 12.9776 20.7424C12.9454 20.6674 12.8972 20.6002 12.8364 20.5457Z" fill="white"/>
<path d="M9.29792 18.015C9.33487 18.0403 9.37971 18.0516 9.42427 18.0467C9.46883 18.0418 9.51016 18.0211 9.54073 17.9883L15.9808 11.0887C16.0057 11.062 16.0222 11.0286 16.0284 10.9926C16.0346 10.9566 16.0301 10.9196 16.0156 10.8861C16.001 10.8526 15.977 10.824 15.9465 10.804C15.916 10.7839 15.8803 10.7732 15.8437 10.7731H11.4784L14.7281 5.4879C14.7456 5.45948 14.7552 5.42692 14.7559 5.39356C14.7566 5.36021 14.7483 5.32727 14.7321 5.29815C14.7158 5.26903 14.692 5.24478 14.6633 5.22791C14.6345 5.21103 14.6017 5.20214 14.5684 5.20215H11.556C11.523 5.20215 11.4906 5.21086 11.4621 5.22739C11.4335 5.24391 11.4098 5.26767 11.3934 5.29627L7.24367 12.5122C7.22724 12.5407 7.2186 12.573 7.21863 12.6059C7.21865 12.6388 7.22734 12.6711 7.24382 12.6996C7.2603 12.7281 7.28399 12.7517 7.3125 12.7681C7.34101 12.7845 7.37334 12.7931 7.40623 12.7931H11.6415L9.23492 17.7787C9.21542 17.8191 9.21105 17.8652 9.22261 17.9085C9.23417 17.9519 9.26089 17.9896 9.29792 18.015ZM12.1089 12.6871C12.1227 12.6586 12.1291 12.6269 12.1273 12.5952C12.1255 12.5635 12.1158 12.5328 12.0989 12.5059C12.082 12.479 12.0586 12.4568 12.0308 12.4415C12.003 12.4261 11.9717 12.4181 11.94 12.4181H7.73042L11.6644 5.57715H14.2329L10.9832 10.8626C10.9657 10.891 10.9561 10.9236 10.9554 10.9569C10.9547 10.9903 10.9629 11.0232 10.9792 11.0523C10.9955 11.0815 11.0192 11.1057 11.048 11.1226C11.0768 11.1395 11.1096 11.1483 11.1429 11.1483H15.4123L10.1098 16.8294L12.1089 12.6871ZM20.1077 15.6275C20.0856 15.6165 20.0616 15.61 20.0371 15.6083C20.0125 15.6066 19.9878 15.6098 19.9645 15.6176C19.9411 15.6255 19.9195 15.6378 19.901 15.654C19.8824 15.6702 19.8672 15.6898 19.8562 15.7119C19.6362 16.154 19.381 16.5777 19.0929 16.9788C19.0647 17.0192 19.0535 17.0691 19.0618 17.1177C19.0701 17.1663 19.0972 17.2097 19.1372 17.2384C19.1773 17.2672 19.227 17.279 19.2757 17.2714C19.3244 17.2638 19.3681 17.2373 19.3974 17.1976C19.6972 16.7802 19.9629 16.3393 20.1919 15.8791C20.2029 15.8571 20.2094 15.8331 20.2112 15.8085C20.2129 15.7839 20.2097 15.7593 20.2019 15.7359C20.1941 15.7125 20.1818 15.6909 20.1656 15.6723C20.1494 15.6537 20.1297 15.6385 20.1077 15.6275Z" fill="white"/>
<path d="M21.6562 11.6261C21.6562 6.59227 17.8446 2.30958 12.8961 1.67808L12.9291 1.65165C13.0856 1.52658 13.1839 1.34808 13.2062 1.14877C13.2285 0.949458 13.1715 0.753895 13.0464 0.597708C12.9851 0.520553 12.9091 0.456331 12.8228 0.408762C12.7364 0.361193 12.6415 0.331221 12.5436 0.320583C12.4457 0.309599 12.3465 0.318057 12.2519 0.345471C12.1573 0.372885 12.069 0.418716 11.9921 0.480333L10.4681 1.69965C10.3217 1.81842 10.2256 1.98824 10.1993 2.17496C5.80556 2.83533 2.38219 6.49196 2.08613 10.9929C1.80375 11.0664 1.59375 11.3212 1.59375 11.6261C1.59375 16.7272 5.45963 21.0157 10.479 21.5896L10.4681 21.5981C10.313 21.7225 10.2136 21.9034 10.1916 22.101C10.1697 22.2987 10.227 22.497 10.3511 22.6524C10.4213 22.7404 10.5104 22.8115 10.6119 22.8602C10.7133 22.9089 10.8245 22.9341 10.9371 22.9338C11.1072 22.9336 11.2723 22.8756 11.4052 22.7694L12.9293 21.5501C13.0819 21.4266 13.1796 21.2478 13.2011 21.0526C15.4133 20.6851 17.4258 19.551 18.8859 17.849C18.9175 17.8112 18.9328 17.7625 18.9287 17.7134C18.9246 17.6643 18.9014 17.6188 18.8641 17.5868C18.8267 17.5547 18.7782 17.5386 18.7291 17.5419C18.68 17.5453 18.6341 17.5678 18.6015 17.6047C17.2018 19.2363 15.2738 20.3249 13.1537 20.6806C13.1112 20.5758 13.0456 20.482 12.9617 20.4061L11.4999 19.0946C11.4268 19.0284 11.3413 18.9774 11.2483 18.9447C11.1553 18.9119 11.0567 18.898 10.9583 18.9037C10.8599 18.9088 10.7635 18.9334 10.6747 18.9759C10.5858 19.0185 10.5063 19.0783 10.4408 19.1518C10.3747 19.2249 10.3238 19.3104 10.291 19.4034C10.2583 19.4963 10.2443 19.5949 10.2499 19.6933C10.255 19.7917 10.2795 19.8881 10.322 19.9769C10.3646 20.0658 10.4243 20.1453 10.4977 20.211L10.5759 20.2811C6.23231 19.7604 2.90625 16.0606 2.90625 11.6261C2.90625 11.3385 2.71894 11.096 2.46075 11.0077C2.74931 6.69389 6.02794 3.18971 10.2373 2.54846C10.2787 2.6614 10.3467 2.76266 10.4357 2.84358L11.8976 4.15552C12.0457 4.2883 12.2404 4.35683 12.439 4.34604C12.6376 4.33524 12.8238 4.24601 12.9566 4.09796C13.0227 4.0248 13.0735 3.93927 13.1063 3.84633C13.1391 3.75338 13.1531 3.65485 13.1475 3.55646C13.1424 3.45807 13.1179 3.36167 13.0754 3.27282C13.0328 3.18396 12.9731 3.10441 12.8996 3.03877L12.852 2.99602C17.0972 3.59827 20.3438 7.28302 20.3438 11.6261C20.3438 11.9139 20.5312 12.1565 20.7898 12.2446C20.7278 13.2026 20.5149 14.1447 20.1589 15.0361C20.1404 15.0823 20.1411 15.134 20.1607 15.1797C20.1803 15.2254 20.2173 15.2614 20.2635 15.2799C20.3097 15.2983 20.3613 15.2977 20.407 15.2781C20.4528 15.2584 20.4888 15.2215 20.5072 15.1753C20.8791 14.244 21.101 13.2597 21.1646 12.2589C21.4464 12.1854 21.6562 11.9308 21.6562 11.6261ZM11.1096 20.7043C11.1876 20.7076 11.2626 20.6625 11.2931 20.5891C11.3235 20.5155 11.3044 20.4307 11.2451 20.3776L10.7484 19.932C10.674 19.8652 10.6299 19.773 10.6245 19.673C10.6191 19.5731 10.6528 19.4769 10.7201 19.4023C10.7529 19.3655 10.7926 19.3356 10.837 19.3144C10.8814 19.2932 10.9295 19.281 10.9787 19.2785C11.0279 19.2751 11.0774 19.2817 11.1239 19.2981C11.1705 19.3145 11.2132 19.3402 11.2494 19.3738L12.7112 20.6853C12.7933 20.7592 12.8387 20.8646 12.8355 20.9748C12.834 21.0293 12.8207 21.0828 12.7964 21.1316C12.7721 21.1803 12.7375 21.2232 12.6949 21.2572L11.1707 22.4767C11.0141 22.6025 10.7689 22.5746 10.6438 22.418C10.5818 22.3403 10.5531 22.2412 10.5641 22.1424C10.575 22.0436 10.6248 21.9532 10.7023 21.891L11.0769 21.5913C11.1064 21.5677 11.128 21.5357 11.139 21.4996C11.15 21.4635 11.1498 21.4249 11.1385 21.3889C11.1272 21.3529 11.1054 21.3211 11.0758 21.2977C11.0461 21.2743 11.0102 21.2604 10.9725 21.2578C5.92369 20.919 1.96875 16.6882 1.96875 11.6261C1.96875 11.471 2.09494 11.3448 2.25 11.3448C2.40506 11.3448 2.53125 11.471 2.53125 11.6261C2.53125 16.4463 6.29925 20.4337 11.1096 20.7043ZM21 11.9073C20.8449 11.9073 20.7188 11.7811 20.7188 11.6261C20.7188 6.8949 17.0243 2.91277 12.3079 2.56046C12.2689 2.55758 12.2299 2.56698 12.1965 2.58733C12.1631 2.60767 12.1369 2.63796 12.1216 2.67394C12.1063 2.70992 12.1026 2.74979 12.111 2.78798C12.1195 2.82616 12.1397 2.86075 12.1688 2.8869L12.6491 3.31796C12.7236 3.38471 12.7676 3.47677 12.7731 3.5769C12.7759 3.62607 12.7689 3.67532 12.7525 3.72177C12.7362 3.76822 12.7107 3.81095 12.6776 3.84746C12.5449 3.99521 12.2963 4.0089 12.1481 3.87615L10.6864 2.5644C10.6042 2.49052 10.5589 2.38515 10.5621 2.27471C10.5653 2.16427 10.6164 2.06133 10.7027 1.99252L12.2267 0.773208C12.3044 0.71107 12.4036 0.682279 12.5025 0.693145C12.6019 0.704395 12.6913 0.753333 12.7539 0.831708C12.8164 0.909895 12.8447 1.00758 12.8338 1.10733C12.8285 1.15629 12.8135 1.20371 12.7897 1.24683C12.7659 1.28996 12.7338 1.32794 12.6952 1.35858L12.3053 1.67058C12.2759 1.69405 12.2543 1.7258 12.2432 1.76172C12.2321 1.79764 12.232 1.83606 12.243 1.872C12.2541 1.90794 12.2756 1.93974 12.3049 1.96327C12.3343 1.9868 12.37 2.00098 12.4074 2.00396C17.3837 2.40521 21.2816 6.63146 21.2816 11.6257C21.2815 11.7004 21.2518 11.7719 21.199 11.8247C21.1462 11.8775 21.0746 11.9072 21 11.9073Z" fill="white"/>
</svg>
