<svg width="25" height="24" viewBox="0 0 25 24" fill="none" xmlns="http://www.w3.org/2000/svg">
<path d="M12.056 5.38965H15.0684L11.6429 10.9606H16.3438L9.90369 17.8603L12.4402 12.6056H7.90625L12.056 5.38965Z" fill="white"/>
<path d="M12.056 5.38965L7.90625 12.6056H8.46875L12.6185 5.38965H12.056Z" fill="white"/>
<path d="M12.9221 1.81826L13.3121 1.50626C13.3713 1.46065 13.4208 1.4037 13.4578 1.33873C13.4948 1.27375 13.5184 1.20206 13.5274 1.12784C13.5363 1.05362 13.5304 0.978366 13.5099 0.90647C13.4894 0.834573 13.4548 0.76748 13.4081 0.70911C13.3614 0.650741 13.3035 0.602267 13.2379 0.566521C13.1722 0.530775 13.1001 0.508475 13.0257 0.500924C12.9514 0.493373 12.8762 0.500722 12.8047 0.522542C12.7332 0.544363 12.6668 0.580216 12.6093 0.628007L11.0853 1.84732C11.0215 1.89833 10.9697 1.96262 10.9332 2.03571C10.8968 2.10881 10.8768 2.18895 10.8744 2.27058C10.8721 2.35221 10.8876 2.43336 10.9198 2.50841C10.952 2.58345 11.0002 2.65058 11.0609 2.70513L12.5227 4.01688C12.6258 4.10962 12.7596 4.16085 12.8983 4.16069C13.0121 4.16072 13.1233 4.12619 13.2171 4.06167C13.3109 3.99715 13.3829 3.90569 13.4237 3.79936C13.4644 3.69303 13.4719 3.57685 13.4451 3.46618C13.4184 3.3555 13.3587 3.25554 13.274 3.17951L12.7936 2.74863C17.393 3.09213 21.0311 6.94151 21.0311 11.6271C21.0311 11.7515 21.0804 11.8707 21.1684 11.9586C21.2563 12.0465 21.3755 12.0959 21.4998 12.0959C21.6241 12.0959 21.7434 12.0465 21.8313 11.9586C21.9192 11.8707 21.9686 11.7515 21.9686 11.6271C21.9688 6.46769 17.9782 2.22569 12.9221 1.81826ZM13.3364 20.5465L11.8747 19.2349C11.7633 19.1379 11.6182 19.0885 11.4707 19.0976C11.3232 19.1067 11.1852 19.1734 11.0865 19.2833C10.9878 19.3933 10.9364 19.5377 10.9433 19.6853C10.9502 19.8329 11.0149 19.9718 11.1234 20.0721L11.6201 20.5178C6.94325 20.2551 3.21875 16.3683 3.21875 11.6269C3.21875 11.5026 3.16936 11.3834 3.08146 11.2955C2.99355 11.2076 2.87432 11.1582 2.75 11.1582C2.62568 11.1582 2.50645 11.2076 2.41854 11.2955C2.33064 11.3834 2.28125 11.5026 2.28125 11.6269C2.28125 16.831 6.34137 21.1023 11.4599 21.4458L11.0853 21.7456C11.0261 21.7912 10.9765 21.8481 10.9396 21.9131C10.9026 21.9781 10.8789 22.0498 10.87 22.124C10.8611 22.1982 10.867 22.2735 10.8875 22.3454C10.9079 22.4173 10.9425 22.4843 10.9893 22.5427C11.036 22.6011 11.0938 22.6496 11.1595 22.6853C11.2251 22.7211 11.2973 22.7434 11.3716 22.7509C11.446 22.7585 11.5211 22.7511 11.5926 22.7293C11.6641 22.7075 11.7306 22.6716 11.7881 22.6238L13.3121 21.4045C13.3758 21.3535 13.4277 21.2892 13.4641 21.2161C13.5006 21.143 13.5206 21.0628 13.523 20.9812C13.5253 20.8995 13.5098 20.8183 13.4776 20.7433C13.4454 20.6682 13.3972 20.6011 13.3364 20.5465Z" fill="white"/>
<path d="M9.79792 18.015C9.83487 18.0403 9.87971 18.0516 9.92427 18.0467C9.96883 18.0418 10.0102 18.0211 10.0407 17.9883L16.4808 11.0887C16.5057 11.062 16.5222 11.0286 16.5284 10.9926C16.5346 10.9566 16.5301 10.9196 16.5156 10.8861C16.501 10.8526 16.477 10.824 16.4465 10.804C16.416 10.7839 16.3803 10.7732 16.3437 10.7731H11.9784L15.2281 5.4879C15.2456 5.45948 15.2552 5.42692 15.2559 5.39356C15.2566 5.36021 15.2483 5.32727 15.2321 5.29815C15.2158 5.26903 15.192 5.24478 15.1633 5.22791C15.1345 5.21103 15.1017 5.20214 15.0684 5.20215H12.056C12.023 5.20215 11.9906 5.21086 11.9621 5.22739C11.9335 5.24391 11.9098 5.26767 11.8934 5.29627L7.74367 12.5122C7.72724 12.5407 7.7186 12.573 7.71863 12.6059C7.71865 12.6388 7.72734 12.6711 7.74382 12.6996C7.7603 12.7281 7.78399 12.7517 7.8125 12.7681C7.84101 12.7845 7.87334 12.7931 7.90623 12.7931H12.1415L9.73492 17.7787C9.71542 17.8191 9.71105 17.8652 9.72261 17.9085C9.73417 17.9519 9.76089 17.9896 9.79792 18.015ZM12.6089 12.6871C12.6227 12.6586 12.6291 12.6269 12.6273 12.5952C12.6255 12.5635 12.6158 12.5328 12.5989 12.5059C12.582 12.479 12.5586 12.4568 12.5308 12.4415C12.503 12.4261 12.4717 12.4181 12.44 12.4181H8.23042L12.1644 5.57715H14.7329L11.4832 10.8626C11.4657 10.891 11.4561 10.9236 11.4554 10.9569C11.4547 10.9903 11.4629 11.0232 11.4792 11.0523C11.4955 11.0815 11.5192 11.1057 11.548 11.1226C11.5768 11.1395 11.6096 11.1483 11.6429 11.1483H15.9123L10.6098 16.8294L12.6089 12.6871ZM20.6077 15.6275C20.5856 15.6165 20.5616 15.61 20.5371 15.6083C20.5125 15.6066 20.4878 15.6098 20.4645 15.6176C20.4411 15.6255 20.4195 15.6378 20.401 15.654C20.3824 15.6702 20.3672 15.6898 20.3562 15.7119C20.1362 16.154 19.881 16.5777 19.5929 16.9788C19.5647 17.0192 19.5535 17.0691 19.5618 17.1177C19.5701 17.1663 19.5972 17.2097 19.6372 17.2384C19.6773 17.2672 19.727 17.279 19.7757 17.2714C19.8244 17.2638 19.8681 17.2373 19.8974 17.1976C20.1972 16.7802 20.4629 16.3393 20.6919 15.8791C20.7029 15.8571 20.7094 15.8331 20.7112 15.8085C20.7129 15.7839 20.7097 15.7593 20.7019 15.7359C20.6941 15.7125 20.6818 15.6909 20.6656 15.6723C20.6494 15.6537 20.6297 15.6385 20.6077 15.6275Z" fill="white"/>
<path d="M22.1562 11.6266C22.1562 6.59276 18.3446 2.31007 13.3961 1.67857L13.4291 1.65213C13.5856 1.52707 13.6839 1.34857 13.7062 1.14926C13.7285 0.949946 13.6715 0.754384 13.5464 0.598196C13.4851 0.521041 13.4091 0.45682 13.3228 0.409251C13.2364 0.361681 13.1415 0.33171 13.0436 0.321071C12.9457 0.310088 12.8465 0.318545 12.7519 0.34596C12.6573 0.373374 12.569 0.419204 12.4921 0.480821L10.9681 1.70013C10.8217 1.81891 10.7256 1.98873 10.6993 2.17545C6.30556 2.83582 2.88219 6.49245 2.58613 10.9934C2.30375 11.0669 2.09375 11.3217 2.09375 11.6266C2.09375 16.7277 5.95963 21.0162 10.979 21.5901L10.9681 21.5986C10.813 21.723 10.7136 21.9039 10.6916 22.1015C10.6697 22.2992 10.727 22.4975 10.8511 22.6529C10.9213 22.7409 11.0104 22.812 11.1119 22.8607C11.2133 22.9094 11.3245 22.9346 11.4371 22.9343C11.6072 22.9341 11.7723 22.8761 11.9052 22.7699L13.4293 21.5506C13.5819 21.427 13.6796 21.2483 13.7011 21.0531C15.9133 20.6856 17.9258 19.5515 19.3859 17.8495C19.4175 17.8117 19.4328 17.763 19.4287 17.7139C19.4246 17.6648 19.4014 17.6193 19.3641 17.5873C19.3267 17.5552 19.2782 17.5391 19.2291 17.5424C19.18 17.5458 19.1341 17.5683 19.1015 17.6052C17.7018 19.2368 15.7738 20.3253 13.6537 20.6811C13.6112 20.5763 13.5456 20.4825 13.4617 20.4066L11.9999 19.0951C11.9268 19.0289 11.8413 18.9779 11.7483 18.9452C11.6553 18.9124 11.5567 18.8985 11.4583 18.9042C11.3599 18.9093 11.2635 18.9338 11.1747 18.9764C11.0858 19.019 11.0063 19.0788 10.9408 19.1523C10.8747 19.2254 10.8238 19.3109 10.791 19.4039C10.7583 19.4968 10.7443 19.5954 10.7499 19.6938C10.755 19.7921 10.7795 19.8885 10.822 19.9774C10.8646 20.0663 10.9243 20.1458 10.9977 20.2114L11.0759 20.2816C6.73231 19.7609 3.40625 16.0611 3.40625 11.6266C3.40625 11.3389 3.21894 11.0965 2.96075 11.0082C3.24931 6.69438 6.52794 3.1902 10.7373 2.54895C10.7787 2.66189 10.8467 2.76315 10.9357 2.84407L12.3976 4.15601C12.5457 4.28879 12.7404 4.35732 12.939 4.34653C13.1376 4.33573 13.3238 4.2465 13.4566 4.09845C13.5227 4.02529 13.5735 3.93976 13.6063 3.84681C13.6391 3.75387 13.6531 3.65534 13.6475 3.55695C13.6424 3.45856 13.6179 3.36216 13.5754 3.2733C13.5328 3.18445 13.4731 3.1049 13.3996 3.03926L13.352 2.99651C17.5972 3.59876 20.8438 7.28351 20.8438 11.6266C20.8438 11.9144 21.0312 12.157 21.2898 12.2451C21.2278 13.2031 21.0149 14.1452 20.6589 15.0366C20.6404 15.0828 20.6411 15.1345 20.6607 15.1802C20.6803 15.2259 20.7173 15.2619 20.7635 15.2804C20.8097 15.2988 20.8613 15.2982 20.907 15.2786C20.9528 15.2589 20.9888 15.222 21.0072 15.1758C21.3791 14.2445 21.601 13.2601 21.6646 12.2594C21.9464 12.1859 22.1562 11.9313 22.1562 11.6266ZM11.6096 20.7048C11.6876 20.7081 11.7626 20.6629 11.7931 20.5896C11.8235 20.5159 11.8044 20.4312 11.7451 20.3781L11.2484 19.9324C11.174 19.8657 11.1299 19.7734 11.1245 19.6735C11.1191 19.5736 11.1528 19.4774 11.2201 19.4028C11.2529 19.366 11.2926 19.3361 11.337 19.3149C11.3814 19.2936 11.4295 19.2814 11.4787 19.279C11.5279 19.2756 11.5774 19.2822 11.6239 19.2986C11.6705 19.315 11.7132 19.3407 11.7494 19.3743L13.2112 20.6858C13.2933 20.7597 13.3387 20.8651 13.3355 20.9753C13.334 21.0298 13.3207 21.0833 13.2964 21.1321C13.2721 21.1808 13.2375 21.2237 13.1949 21.2577L11.6707 22.4772C11.5141 22.603 11.2689 22.5751 11.1438 22.4185C11.0818 22.3408 11.0531 22.2417 11.0641 22.1429C11.075 22.0441 11.1248 21.9536 11.2023 21.8914L11.5769 21.5918C11.6064 21.5682 11.628 21.5362 11.639 21.5001C11.65 21.464 11.6498 21.4254 11.6385 21.3894C11.6272 21.3534 11.6054 21.3216 11.5758 21.2982C11.5461 21.2748 11.5102 21.2609 11.4725 21.2583C6.42369 20.9194 2.46875 16.6887 2.46875 11.6266C2.46875 11.4715 2.59494 11.3453 2.75 11.3453C2.90506 11.3453 3.03125 11.4715 3.03125 11.6266C3.03125 16.4468 6.79925 20.4342 11.6096 20.7048ZM21.5 11.9078C21.3449 11.9078 21.2188 11.7816 21.2188 11.6266C21.2188 6.89538 17.5243 2.91326 12.8079 2.56095C12.7689 2.55807 12.7299 2.56747 12.6965 2.58781C12.6631 2.60816 12.6369 2.63845 12.6216 2.67443C12.6063 2.71041 12.6026 2.75028 12.611 2.78846C12.6195 2.82665 12.6397 2.86124 12.6688 2.88738L13.1491 3.31845C13.2236 3.3852 13.2676 3.47726 13.2731 3.57738C13.2759 3.62656 13.2689 3.67581 13.2525 3.72226C13.2362 3.76871 13.2107 3.81143 13.1776 3.84795C13.0449 3.9957 12.7963 4.00938 12.6481 3.87663L11.1864 2.56488C11.1042 2.49101 11.0589 2.38563 11.0621 2.2752C11.0653 2.16476 11.1164 2.06182 11.2027 1.99301L12.7267 0.773696C12.8044 0.711559 12.9036 0.682768 13.0025 0.693634C13.1019 0.704884 13.1913 0.753821 13.2539 0.832196C13.3164 0.910384 13.3447 1.00807 13.3338 1.10782C13.3285 1.15678 13.3135 1.20419 13.2897 1.24732C13.2659 1.29045 13.2338 1.32843 13.1952 1.35907L12.8053 1.67107C12.7759 1.69454 12.7543 1.72629 12.7432 1.76221C12.7321 1.79813 12.732 1.83655 12.743 1.87249C12.7541 1.90843 12.7756 1.94023 12.8049 1.96376C12.8343 1.98729 12.87 2.00146 12.9074 2.00445C17.8837 2.4057 21.7816 6.63195 21.7816 11.6262C21.7815 11.7008 21.7518 11.7724 21.699 11.8252C21.6462 11.878 21.5746 11.9077 21.5 11.9078Z" fill="white"/>
</svg>
