<svg width="155" height="131" viewBox="0 0 155 131" fill="none" xmlns="http://www.w3.org/2000/svg">
<path d="M86.0943 128.854C120.228 128.854 147.9 101.181 147.9 66.9259C147.9 32.6705 120.106 4.99805 86.0943 4.99805C51.9608 4.99805 24.2883 32.6705 24.2883 66.9259C24.2883 101.181 51.9608 128.854 86.0943 128.854Z" fill="#F4E8FF" stroke="#B69CFF" stroke-width="2" stroke-miterlimit="10"/>
<path d="M143.877 26.3312C146.638 26.3312 148.875 24.0935 148.875 21.3331C148.875 18.5727 146.638 16.335 143.877 16.335C141.117 16.335 138.879 18.5727 138.879 21.3331C138.879 24.0935 141.117 26.3312 143.877 26.3312Z" fill="#F4E8FF"/>
<path d="M151.192 6.82669C153.077 6.82669 154.605 5.29848 154.605 3.41334C154.605 1.52821 153.077 0 151.192 0C149.307 0 147.778 1.52821 147.778 3.41334C147.778 5.29848 149.307 6.82669 151.192 6.82669Z" fill="#F4E8FF"/>
<path d="M27.5798 26.2095C29.465 26.2095 30.9932 24.6813 30.9932 22.7962C30.9932 20.911 29.465 19.3828 27.5798 19.3828C25.6947 19.3828 24.1665 20.911 24.1665 22.7962C24.1665 24.6813 25.6947 26.2095 27.5798 26.2095Z" fill="#F4E8FF"/>
<path d="M6.73404 92.0385C10.235 92.0385 13.0731 89.2004 13.0731 85.6994C13.0731 82.1985 10.235 79.3604 6.73404 79.3604C3.23306 79.3604 0.394966 82.1985 0.394966 85.6994C0.394966 89.2004 3.23306 92.0385 6.73404 92.0385Z" fill="#F4E8FF"/>
<path d="M104.014 34.0112L122.666 101.059C123.275 103.375 121.934 105.691 119.618 106.301L53.9113 123.733C51.5951 124.343 49.2789 123.002 48.6694 120.686L25.7512 34.1331C25.1417 31.8169 26.4827 29.5007 28.7989 28.8912L76.3419 16.335L104.014 34.0112Z" fill="white" stroke="#B69CFF" stroke-width="2" stroke-miterlimit="10"/>
<path d="M67.686 86.3063L67.686 86.3063L67.6926 86.3046L103.16 76.9196C103.161 76.9194 103.162 76.9192 103.163 76.919C103.352 76.8738 103.698 77.035 103.768 77.3859L103.777 77.4309L103.794 77.4735C103.929 77.8102 103.712 78.0975 103.527 78.1437L103.527 78.1437L103.521 78.1454L68.053 87.5304L68.0496 87.5312L64.152 88.5056L64.152 88.5056L64.1438 88.5078L52.3242 91.6759C52.1349 91.7206 51.7898 91.5594 51.7197 91.2089L51.7107 91.1638L51.6937 91.1212C51.559 90.7845 51.7754 90.4972 51.9602 90.451L51.9602 90.4511L51.9684 90.4489L63.7891 87.2805L67.686 86.3063Z" fill="#B69CFF" stroke="#B69CFF"/>
<path d="M83.1758 73.2603L83.1771 73.26L87.6826 72.0423L87.6876 72.0409L100.844 68.63C100.845 68.6299 100.845 68.6298 100.845 68.6297C100.891 68.6188 101.015 68.6269 101.202 68.755C101.372 68.8725 101.522 69.0437 101.607 69.2027C101.726 69.5313 101.514 69.8088 101.333 69.8541L101.329 69.8552L88.1631 73.2685L88.1581 73.2699L83.6494 74.4885L83.6476 74.4889L50.2521 83.3863C50.0629 83.4312 49.7174 83.27 49.6473 82.9193L49.6383 82.8743L49.6213 82.8317C49.4866 82.4949 49.703 82.2077 49.8878 82.1615L49.8878 82.1615L49.8957 82.1594L83.1758 73.2603Z" fill="#B69CFF" stroke="#B69CFF"/>
<path d="M47.5716 73.7501L47.5716 73.7502L47.5787 73.7483L92.067 61.9253L92.0741 61.9235L95.4803 61.072L98.8807 60.2219C99.2165 60.1595 99.4482 60.3536 99.5064 60.5863L99.5146 60.6192L99.5272 60.6507C99.6619 60.9874 99.4455 61.2747 99.2606 61.3209L99.2606 61.3207L99.2471 61.3245L96.2044 62.1765L92.4303 63.1504L92.4268 63.1513L47.9386 74.9743C47.9377 74.9745 47.9369 74.9747 47.936 74.9749C47.7468 75.02 47.4012 74.8587 47.3311 74.508L47.3221 74.4629L47.305 74.4203C47.1703 74.0836 47.3867 73.7963 47.5716 73.7501Z" fill="#B69CFF" stroke="#B69CFF"/>
<path d="M78.0492 102.403L75.6111 103.012C75.4225 103.059 75.0741 102.898 75.0036 102.546C74.9605 102.33 74.9862 102.131 75.0476 101.991C75.108 101.853 75.1853 101.803 75.2441 101.788L77.6822 101.178C77.8695 101.132 78.2145 101.29 78.2882 101.638C78.3363 101.934 78.3012 102.126 78.2507 102.234C78.2068 102.328 78.1446 102.379 78.0492 102.403Z" fill="#D6DCE8" stroke="#B69CFF"/>
<path d="M70.6362 104.348L70.622 104.351L70.608 104.354L56.5921 108.011C56.403 108.056 56.0566 107.895 55.9864 107.544C55.9433 107.329 55.969 107.129 56.0303 106.989C56.0908 106.851 56.168 106.801 56.2269 106.786L56.2269 106.786L56.2318 106.785L70.2477 103.129C70.4368 103.083 70.7832 103.244 70.8534 103.595L70.8624 103.64L70.8795 103.683C70.9598 103.884 70.9457 104.048 70.9009 104.15C70.8606 104.242 70.7831 104.319 70.6362 104.348Z" fill="#B69CFF" stroke="#B69CFF"/>
<path d="M83.418 55.4628L83.422 55.4617L86.0999 54.7314L86.104 54.7303L97.187 51.8072C97.1876 51.8071 97.1882 51.807 97.1888 51.8068C97.2372 51.7957 97.3545 51.8083 97.4883 51.9134C97.6249 52.0208 97.6629 52.1335 97.6629 52.1755V52.2169L97.6697 52.2577C97.7193 52.5552 97.6857 52.7811 97.6191 52.9226C97.5605 53.047 97.4736 53.12 97.3334 53.1481L97.3179 53.1512L97.3027 53.1553L86.3312 56.081L86.3285 56.0817L83.6517 56.8118L83.6466 56.8131L45.8662 66.6848C45.8656 66.6849 45.865 66.6851 45.8644 66.6852C45.6753 66.7309 45.329 66.5697 45.2588 66.2185L45.2497 66.1734L45.2327 66.1308C45.098 65.7941 45.3144 65.5068 45.4993 65.4606L45.4993 65.4607L45.5055 65.459L83.418 55.4628Z" fill="#B69CFF" stroke="#B69CFF"/>
<path d="M39.2772 40.7203L39.2617 40.7244L39.2465 40.7295C38.843 40.864 38.3525 40.6112 38.1723 40.0705C38.0389 39.6705 38.2863 39.1849 38.8174 39.001L70.2521 30.7159L70.2676 30.7118L70.2828 30.7067C70.6863 30.5722 71.1768 30.825 71.357 31.3657C71.4904 31.7657 71.243 32.2513 70.7119 32.4352L39.2772 40.7203Z" fill="#B69CFF" stroke="#B69CFF"/>
<path d="M41.35 48.2784L41.3343 48.2826L41.3189 48.2877C40.9154 48.4222 40.4249 48.1694 40.2447 47.6287C40.1113 47.2286 40.3588 46.7429 40.8901 46.5591L52.8205 43.3939L52.8356 43.3899L52.8504 43.3849C53.2539 43.2504 53.7444 43.5033 53.9246 44.0439C54.0627 44.4583 53.7952 44.9389 53.3853 45.1176L41.35 48.2784Z" fill="#B69CFF" stroke="#B69CFF"/>
<mask id="path-15-inside-1_433_4131" fill="white">
<path d="M76.3419 16.335L81.2181 34.8645C81.9495 37.4246 84.7533 39.0093 87.3133 38.2779L104.014 34.0112"/>
</mask>
<path d="M76.3419 16.335L81.2181 34.8645C81.9495 37.4246 84.7533 39.0093 87.3133 38.2779L104.014 34.0112" fill="#B69CFF"/>
<path d="M81.2181 34.8645L80.251 35.119L80.2537 35.1292L80.2565 35.1393L81.2181 34.8645ZM87.3133 38.2779L87.0658 37.309L87.0521 37.3125L87.0386 37.3164L87.3133 38.2779ZM75.3748 16.5895L80.251 35.119L82.1851 34.6101L77.3089 16.0805L75.3748 16.5895ZM80.2565 35.1393C81.1373 38.2219 84.4886 40.125 87.588 39.2394L87.0386 37.3164C85.018 37.8937 82.7617 36.6272 82.1796 34.5898L80.2565 35.1393ZM87.5608 39.2468L104.262 34.9801L103.767 33.0423L87.0658 37.309L87.5608 39.2468Z" fill="#B69CFF" mask="url(#path-15-inside-1_433_4131)"/>
<path d="M153.264 52.9067L142.049 121.661C141.683 123.977 139.367 125.562 137.051 125.075L70.2466 113.372C67.9304 113.006 66.3456 110.69 66.7114 108.374L82.1933 20.2361C82.559 17.9199 84.8752 16.3351 87.1914 16.8227L135.71 25.3561L153.264 52.9067Z" fill="white" stroke="#B69CFF" stroke-width="2" stroke-miterlimit="10"/>
<path d="M98.4364 85.2154L98.4364 85.2155L98.4421 85.2165L134.519 91.5543C134.66 91.5838 134.748 91.6606 134.805 91.7743C134.869 91.9016 134.897 92.0899 134.854 92.306L134.844 92.3545V92.404C134.844 92.5398 134.774 92.6823 134.653 92.7863C134.525 92.896 134.412 92.9052 134.368 92.8942L134.351 92.8899L134.333 92.8868L98.255 86.5488L98.2522 86.5482L94.354 85.8173L94.3541 85.8173L94.3465 85.816L82.3016 83.7477C82.1191 83.6906 81.8748 83.3801 81.9521 82.9935L81.9619 82.9449V82.8954C81.9619 82.7597 82.0317 82.6171 82.153 82.5131C82.281 82.4034 82.3938 82.3943 82.4377 82.4052L82.4559 82.4098L82.4744 82.413L94.5392 84.4847L98.4364 85.2154Z" fill="#D6DCE8" stroke="#B69CFF"/>
<path d="M122.573 80.827L122.573 80.8271L122.581 80.8284L135.967 83.1406C136.149 83.1975 136.394 83.5081 136.316 83.8948L136.307 83.9434V83.9929C136.307 84.1286 136.237 84.2712 136.116 84.3752C135.988 84.4849 135.875 84.494 135.831 84.4831L135.813 84.4786L135.795 84.4754L122.389 82.1599L117.883 81.3073L117.883 81.3073L117.876 81.3061L83.887 75.3367C83.7044 75.2802 83.4595 74.9695 83.5369 74.5823L83.5466 74.5338V74.4843C83.5466 74.3485 83.6164 74.206 83.7377 74.102C83.8657 73.9923 83.9785 73.9831 84.0225 73.9941L84.0397 73.9984L84.0573 74.0015L118.062 79.9737L118.069 79.9749L122.573 80.827Z" fill="#D6DCE8" stroke="#B69CFF"/>
<path d="M130.625 73.3917L130.627 73.3919L134.162 74.0014L137.689 74.6097C137.833 74.6398 137.909 74.7154 137.949 74.8063C137.994 74.9088 138.008 75.0729 137.927 75.2735L137.892 75.3629V75.4592C137.892 75.595 137.822 75.7375 137.7 75.8415C137.572 75.9512 137.46 75.9604 137.416 75.9494L137.395 75.9441L137.373 75.9407L134.332 75.4541L130.438 74.7239L130.438 74.7239L130.432 74.7228L85.1059 66.803C84.9233 66.7464 84.6786 66.4357 84.756 66.0486L84.7657 66.0001V65.9506C84.7657 65.8148 84.8355 65.6723 84.9568 65.5683C85.0848 65.4586 85.1976 65.4494 85.2415 65.4604L85.259 65.4648L85.2767 65.4679L130.625 73.3917Z" fill="#D6DCE8" stroke="#B69CFF"/>
<path d="M98.7731 102.52L98.7964 102.525L98.8202 102.529L101.228 102.89C101.41 102.95 101.65 103.259 101.574 103.643L101.572 103.651L101.571 103.659C101.527 103.921 101.429 104.044 101.348 104.107C101.264 104.171 101.148 104.211 101 104.216L98.6332 103.861C98.4511 103.801 98.2107 103.492 98.2875 103.108C98.3296 102.897 98.4338 102.72 98.5478 102.615C98.6614 102.51 98.7386 102.511 98.7731 102.52Z" fill="#D6DCE8" stroke="#B69CFF"/>
<path d="M93.6518 102.891L93.6334 102.886L93.6148 102.883L79.3758 100.449C79.1933 100.392 78.9492 100.081 79.0265 99.6946C79.0686 99.4842 79.1728 99.3073 79.2867 99.2021C79.4003 99.0972 79.4776 99.0978 79.5121 99.1064L79.5304 99.111L79.5491 99.1142L93.788 101.548C93.9706 101.605 94.2147 101.916 94.1374 102.302L94.1358 102.31L94.1345 102.318C94.0885 102.594 93.9822 102.751 93.8933 102.826C93.8108 102.896 93.7305 102.91 93.6518 102.891Z" fill="#D6DCE8" stroke="#B69CFF"/>
<path d="M128.31 64.3711L128.311 64.3713L139.624 66.3177C139.807 66.3747 140.051 66.6852 139.974 67.0719C139.932 67.2814 139.83 67.4512 139.712 67.5522C139.602 67.6463 139.481 67.6825 139.343 67.6549L139.343 67.6548L139.331 67.6526L128.115 65.7021L125.313 65.2147L125.312 65.2145L86.6911 58.3919C86.5084 58.3356 86.2633 58.0247 86.3408 57.6375L86.3505 57.589V57.5395C86.3505 57.4037 86.4203 57.2611 86.5416 57.1572C86.6696 57.0475 86.7824 57.0383 86.8264 57.0493L86.8434 57.0535L86.8607 57.0566L125.505 63.8833L125.506 63.8835L128.31 64.3711Z" fill="#B69CFF" stroke="#B69CFF"/>
<path d="M91.7881 32.0562L91.7881 32.0562L91.7841 32.0555C91.3437 31.9821 91.0183 31.5242 91.098 31.0462C91.1713 30.6062 91.6282 30.2811 92.1056 30.3597C92.1062 30.3598 92.1068 30.3599 92.1073 30.36L124.164 35.967L124.168 35.9676C124.606 36.0406 124.93 36.4936 124.856 36.9685C124.822 37.1256 124.696 37.3261 124.487 37.4795C124.281 37.6318 124.049 37.6966 123.847 37.6634C123.846 37.6634 123.846 37.6633 123.845 37.6632L91.7881 32.0562Z" fill="#B69CFF" stroke="#B69CFF"/>
<path d="M102.771 41.8108L102.771 41.8107L102.761 41.8089L90.4486 39.6146L90.4487 39.6146L90.4431 39.6136C90.0027 39.5402 89.6773 39.0823 89.757 38.6043C89.8302 38.1647 90.2865 37.8397 90.7635 37.9176L102.95 40.1113L102.95 40.1113L102.957 40.1124C103.397 40.1858 103.723 40.6438 103.643 41.1218C103.564 41.595 103.084 41.8734 102.771 41.8108Z" fill="#B69CFF" stroke="#B69CFF"/>
<mask id="path-26-inside-2_433_4131" fill="white">
<path d="M135.588 25.356L132.296 44.2513C131.809 46.9332 133.759 49.4932 136.441 49.9808L153.264 52.9065"/>
</mask>
<path d="M135.588 25.356L132.296 44.2513C131.809 46.9332 133.759 49.4932 136.441 49.9808L153.264 52.9065" fill="#B69CFF"/>
<path d="M132.296 44.2513L133.28 44.4301L133.281 44.4229L132.296 44.2513ZM136.441 49.9808L136.262 50.9647L136.27 50.966L136.441 49.9808ZM134.603 25.1843L131.311 44.0796L133.281 44.4229L136.573 25.5276L134.603 25.1843ZM131.312 44.0724C130.717 47.3497 133.09 50.388 136.262 50.9647L136.62 48.9969C134.428 48.5984 132.901 46.5166 133.28 44.4301L131.312 44.0724ZM136.27 50.966L153.093 53.8917L153.435 51.9213L136.612 48.9956L136.27 50.966Z" fill="#B69CFF" mask="url(#path-26-inside-2_433_4131)"/>
<path d="M107.306 115.2C122.32 115.2 134.491 103.029 134.491 88.0154C134.491 73.0016 122.32 60.8306 107.306 60.8306C92.292 60.8306 80.121 73.0016 80.121 88.0154C80.121 103.029 92.292 115.2 107.306 115.2Z" fill="white"/>
<path d="M146.731 130C145.676 130 144.621 129.578 143.777 128.629L126.155 111.007L125.522 111.429C119.823 115.65 113.176 117.865 106.422 117.865C98.2974 117.865 90.1724 114.594 84.1577 108.896C77.8265 102.882 74.3444 94.7566 74.3444 85.893C74.3444 68.2711 88.6951 53.9204 106.317 53.9204C118.346 53.9204 128.898 60.2516 134.596 71.0146C140.189 81.6722 139.45 94.1235 132.591 104.148L132.169 104.781L149.897 122.508C151.69 124.302 151.268 126.096 150.952 127.046C150.108 128.734 148.419 130 146.731 130ZM106.317 62.6786C93.4435 62.6786 83.1025 73.125 83.1025 85.893C83.1025 100.455 95.0263 109.213 106.633 109.213C113.703 109.213 120.14 106.047 124.677 100.349C130.27 93.3849 131.22 83.9936 127.315 75.8686C123.306 67.7435 115.286 62.6786 106.317 62.6786Z" fill="#AD8AF9" stroke="#8552FF" stroke-width="2" stroke-miterlimit="10"/>
<path d="M104.746 92.4041C104.624 91.9165 104.624 91.4288 104.624 90.8193C104.624 88.7469 105.477 86.9183 107.672 85.3336L109.5 83.9926C110.597 83.1393 111.085 82.1641 111.085 80.945C111.085 79.2383 109.866 77.5317 107.306 77.5317C104.624 77.5317 103.405 79.7259 103.405 81.7983C103.405 82.286 103.405 82.6517 103.527 83.0174L98.6506 82.8955C98.5286 82.4079 98.4067 81.7983 98.4067 81.1888C98.4067 77.044 101.454 73.1431 107.184 73.1431C113.035 73.1431 116.205 76.9221 116.205 80.7012C116.205 83.7488 114.62 85.8212 112.426 87.406L110.841 88.5031C109.5 89.4784 108.769 90.6974 108.769 92.1603V92.4041H104.746ZM106.818 94.8422C108.525 94.8422 109.866 96.1831 109.866 97.8898C109.866 99.5965 108.525 100.937 106.818 100.937C105.112 100.937 103.771 99.5965 103.771 97.8898C103.892 96.305 105.112 94.8422 106.818 94.8422Z" fill="#6C39FF" fill-opacity="0.7"/>
</svg>
