<svg width="20" height="20" viewBox="0 0 20 20" fill="none" xmlns="http://www.w3.org/2000/svg">
<g clip-path="url(#clip0_1_651)">
<path d="M7.89166 7.89167L12.1083 12.1083C12.6675 11.5492 12.9816 10.7908 12.9816 10C12.9816 9.60845 12.9045 9.22073 12.7547 8.85898C12.6048 8.49723 12.3852 8.16854 12.1083 7.89167C11.8315 7.6148 11.5028 7.39518 11.141 7.24533C10.7793 7.09549 10.3915 7.01837 10 7.01837C9.20922 7.01837 8.45083 7.33251 7.89166 7.89167Z" stroke="#9CA3AF" stroke-width="1.5" stroke-linecap="round" stroke-linejoin="round"/>
<path d="M5.15001 4.80834C6.60834 3.70834 8.27501 3.10834 10 3.10834C12.9417 3.10834 15.6833 4.84167 17.5917 7.84167C18.3417 9.01667 18.3417 10.9917 17.5917 12.1667C16.9333 13.2 16.1667 14.0917 15.3333 14.8083M12.9833 16.275C12.0333 16.675 11.025 16.8917 10 16.8917C7.05834 16.8917 4.31667 15.1583 2.40834 12.1583C1.65834 10.9833 1.65834 9.00834 2.40834 7.83334C2.68334 7.4 2.98334 6.99167 3.29168 6.60834" stroke="#9CA3AF" stroke-width="1.5" stroke-linecap="round" stroke-linejoin="round"/>
<path d="M7.07498 10.5834C7.18787 11.1647 7.47191 11.699 7.89063 12.1177C8.30936 12.5364 8.84367 12.8205 9.42498 12.9334M12.1083 12.1084L18.3333 18.3334M1.66665 1.66669L7.89165 7.89169" stroke="#9CA3AF" stroke-width="1.5" stroke-linecap="round" stroke-linejoin="round"/>
</g>
<defs>
<clipPath id="clip0_1_651">
<rect width="20" height="20" fill="white" transform="matrix(-1 0 0 1 20 0)"/>
</clipPath>
</defs>
</svg>
