<svg width="16" height="17" viewBox="0 0 16 17" fill="none" xmlns="http://www.w3.org/2000/svg">
<path fill-rule="evenodd" clip-rule="evenodd" d="M5.49687 0.447161C3.50884 1.12863 1.81485 2.61904 0.871305 4.50517C0.542175 5.15587 0.305187 5.84613 0.160362 6.56275C-0.199497 8.33896 0.0506517 10.2339 0.866919 11.8518C1.39794 12.907 2.16155 13.8478 3.08316 14.5821C3.95648 15.2767 4.97023 15.7955 6.04983 16.0813C7.41028 16.4462 8.85851 16.4374 10.2278 16.1252C11.4653 15.8395 12.6371 15.2459 13.5718 14.3842C14.5593 13.4741 15.2658 12.2783 15.6389 10.9901C16.0469 9.58759 16.0996 8.08836 15.8452 6.6463C13.2866 6.6463 10.7237 6.6463 8.16511 6.6463C8.16511 7.71026 8.16511 8.77421 8.16511 9.83819C9.64845 9.83819 11.1318 9.83819 12.6151 9.83819C12.444 10.8582 11.8384 11.7903 10.9826 12.3662C10.4428 12.7311 9.82401 12.9641 9.18327 13.0785C8.54254 13.1884 7.87548 13.2016 7.23475 13.074C6.58085 12.9422 5.96205 12.6696 5.41786 12.2871C4.54894 11.6759 3.88627 10.7835 3.54834 9.77663C3.20164 8.75224 3.19726 7.61352 3.54834 6.59354C3.7941 5.87251 4.19785 5.20861 4.73326 4.66344C5.39154 3.98638 6.24731 3.50275 7.17331 3.30492C7.96324 3.13785 8.79707 3.16862 9.56947 3.40163C10.2278 3.59949 10.8334 3.96439 11.3293 4.43922C11.8296 3.93803 12.3299 3.43681 12.8302 2.93561C13.0935 2.66742 13.37 2.40801 13.6245 2.13102C12.8653 1.42758 11.97 0.860419 10.9957 0.499905C9.24032 -0.150772 7.26545 -0.163973 5.49687 0.447161Z" fill="white"/>
<path fill-rule="evenodd" clip-rule="evenodd" d="M5.49617 0.447638C7.26037 -0.163496 9.23962 -0.150295 10.995 0.495995C11.9693 0.85651 12.8602 1.41927 13.6238 2.12712C13.3692 2.4041 13.0928 2.66349 12.8295 2.93168C12.3292 3.4329 11.8289 3.9341 11.3286 4.43529C10.8327 3.96048 10.227 3.59996 9.56875 3.39772C8.79637 3.16471 7.96254 3.12953 7.17259 3.30099C6.251 3.49884 5.39523 3.98245 4.73254 4.65953C4.19715 5.20031 3.79338 5.86858 3.54764 6.58961C2.65676 5.89496 1.76588 5.2047 0.870605 4.51005C1.81415 2.61952 3.50814 1.1291 5.49617 0.447638Z" fill="#EA4335"/>
<path fill-rule="evenodd" clip-rule="evenodd" d="M0.164097 6.55837C0.308922 5.84614 0.54591 5.15147 0.875061 4.50079C1.76592 5.19544 2.65681 5.8857 3.55208 6.58035C3.20099 7.60476 3.20099 8.74345 3.55208 9.76346C2.66119 10.4581 1.77033 11.1528 0.879448 11.843C0.0543867 10.2295 -0.195762 8.33458 0.164097 6.55837Z" fill="#FBBC05"/>
<path fill-rule="evenodd" clip-rule="evenodd" d="M8.16534 6.64139C10.7239 6.64139 13.2868 6.64139 15.8454 6.64139C16.0998 8.07906 16.0428 9.57829 15.6391 10.9852C15.266 12.2734 14.5595 13.4692 13.5721 14.3793C12.7075 13.7066 11.8429 13.034 10.9784 12.3613C11.8342 11.7853 12.4398 10.8533 12.611 9.83328C11.1276 9.83328 9.64427 9.83328 8.16095 9.83328C8.16534 8.76932 8.16534 7.70534 8.16534 6.64139Z" fill="#4285F4"/>
<path fill-rule="evenodd" clip-rule="evenodd" d="M0.870605 11.8479C1.76149 11.1577 2.65237 10.463 3.54324 9.76837C3.88555 10.7752 4.54383 11.6677 5.41278 12.2788C5.95696 12.6613 6.58013 12.9339 7.22964 13.0658C7.87037 13.1977 8.53304 13.1801 9.17816 13.0702C9.8189 12.9559 10.4377 12.7229 10.9775 12.3579C11.842 13.0306 12.7066 13.7033 13.5711 14.376C12.6364 15.2421 11.4646 15.8312 10.227 16.117C8.85781 16.4291 7.40958 16.4379 6.04913 16.073C4.96953 15.7873 3.95578 15.2729 3.08244 14.5738C2.16524 13.844 1.40163 12.9031 0.870605 11.8479Z" fill="#34A853"/>
</svg>
