<svg id="ic_camera" xmlns="http://www.w3.org/2000/svg" width="52.945" height="42.99" viewBox="0 0 52.945 42.99">
  <g id="Group_1399" data-name="Group 1399" transform="translate(0 0)">
    <g id="Group_1398" data-name="Group 1398" transform="translate(0)">
      <path id="Path_1365" data-name="Path 1365" d="M51.184,51.5a5.609,5.609,0,0,0-4.177-1.817H38.652v-.1A4.736,4.736,0,0,0,37.293,46.2a4.535,4.535,0,0,0-3.271-1.4h-15.1A4.564,4.564,0,0,0,15.6,46.2a4.827,4.827,0,0,0-1.359,3.375v.1h-8.3A5.609,5.609,0,0,0,1.761,51.5,6.27,6.27,0,0,0,0,55.807V81.663a5.964,5.964,0,0,0,1.761,4.309A5.9,5.9,0,0,0,5.939,87.79H47.007a5.609,5.609,0,0,0,4.177-1.817,6.27,6.27,0,0,0,1.761-4.309V55.807A5.964,5.964,0,0,0,51.184,51.5Zm-.856,30.166h-.05a3.387,3.387,0,0,1-.956,2.388,3.182,3.182,0,0,1-2.315.986H5.939a3.182,3.182,0,0,1-2.315-.986,3.387,3.387,0,0,1-.956-2.388V55.807a3.387,3.387,0,0,1,.956-2.388,3.182,3.182,0,0,1,2.315-.986h9.713a1.375,1.375,0,0,0,1.359-1.4V49.525a2.074,2.074,0,0,1,.554-1.454,1.945,1.945,0,0,1,1.409-.571H34.022a1.945,1.945,0,0,1,1.409.571,2.074,2.074,0,0,1,.554,1.454V51.03a1.375,1.375,0,0,0,1.359,1.4h9.713a3.182,3.182,0,0,1,2.315.986,3.387,3.387,0,0,1,.956,2.388Z" transform="translate(0 -44.8)" fill="#fff"/>
      <path id="plus_1_" data-name="plus(1)" d="M9.459,0A9.541,9.541,0,0,0,0,9.6a9.541,9.541,0,0,0,9.459,9.6,9.541,9.541,0,0,0,9.459-9.6A9.541,9.541,0,0,0,9.459,0Zm4.547,10.339h-3.82V14.4a.728.728,0,1,1-1.455,0V10.339H4.911a.739.739,0,0,1,0-1.477h3.82V5.169a.728.728,0,1,1,1.455,0V8.862h3.82a.739.739,0,0,1,0,1.477Z" transform="translate(17.328 11.724)" fill="#fff"/>
    </g>
  </g>
</svg>
