<svg width="21" height="21" viewBox="0 0 21 21" fill="none" xmlns="http://www.w3.org/2000/svg">
<path d="M10.5007 0.65625C6.51986 0.65625 3.28192 3.89484 3.28192 7.875C3.28192 11.6852 9.71448 19.7558 9.98814 20.0977C10.1128 20.2538 10.3005 20.3438 10.5007 20.3438C10.6995 20.3438 10.8879 20.2538 11.0119 20.0983C11.2869 19.7564 17.7201 11.6852 17.7201 7.875C17.7201 3.8955 14.4808 0.65625 10.5007 0.65625ZM10.5007 18.6231C8.47286 15.9889 4.59442 10.4206 4.59442 7.875C4.59442 4.61869 7.2437 1.96875 10.5007 1.96875C13.757 1.96875 16.4076 4.61869 16.4076 7.875C16.4076 10.4206 12.5278 15.9895 10.5007 18.6231Z" fill="#9CA3AF"/>
<path d="M10.5007 3.77344C8.60017 3.77344 7.05536 5.31891 7.05536 7.21875C7.05536 9.11859 8.60017 10.6641 10.5007 10.6641C12.4012 10.6641 13.9466 9.11859 13.9466 7.21875C13.9466 5.31891 12.4005 3.77344 10.5007 3.77344ZM10.5007 9.35156C9.32401 9.35156 8.36786 8.39475 8.36786 7.21875C8.36786 6.04275 9.32401 5.08594 10.5007 5.08594C11.6767 5.08594 12.6341 6.04275 12.6341 7.21875C12.6341 8.39475 11.6767 9.35156 10.5007 9.35156Z" fill="#9CA3AF"/>
</svg>
