<svg width="14" height="16" viewBox="0 0 14 16" fill="none" xmlns="http://www.w3.org/2000/svg">
<g clip-path="url(#clip0_1_679)">
<path d="M9.80758 0C9.92469 1.0775 9.56829 2.00157 8.86133 2.78943C8.28984 3.42622 7.57312 3.81096 6.69909 3.84384C6.66865 3.84384 6.63781 3.84384 6.59643 3.84384C6.52444 3.48414 6.54024 3.11233 6.64249 2.76008C7.06565 1.31194 8.02478 0.420743 9.4746 0.046966C9.54369 0.0293535 9.61357 0.0156556 9.68306 0H9.80758Z" fill="black"/>
<path d="M13.1632 5.36204C11.9062 6.12408 11.2672 7.23014 11.3874 8.69668C11.5045 10.1448 12.2802 11.1577 13.6297 11.7495C13.4915 12.0415 13.3642 12.3366 13.2151 12.6196C12.7349 13.5346 12.1833 14.402 11.4619 15.1487C11.168 15.4532 10.8397 15.7166 10.4396 15.8728C9.8794 16.0916 9.33953 16.0039 8.81175 15.7554C8.39211 15.5597 7.96505 15.3887 7.49817 15.3413C6.80293 15.2709 6.14594 15.4008 5.51745 15.6998C5.20203 15.8497 4.87569 15.9707 4.52358 15.9941C3.99034 16.0294 3.52541 15.847 3.10694 15.5272C2.52373 15.0814 2.09199 14.5033 1.69304 13.8975C0.875219 12.6575 0.322072 11.3108 0.0991727 9.83719C-0.0632196 8.76517 -0.0460452 7.70177 0.297477 6.65832C0.52428 5.96987 0.91816 5.39062 1.435 4.89433C1.9253 4.42467 2.48899 4.07241 3.14559 3.87672C3.89197 3.65519 4.62351 3.74052 5.34725 3.98435C5.70131 4.10373 6.05264 4.23093 6.411 4.33386C7.00904 4.50568 7.59069 4.41958 8.16062 4.19296C8.64351 4.00157 9.13224 3.8321 9.65299 3.77065C10.5852 3.66106 11.4221 3.91273 12.181 4.44267C12.4152 4.60549 12.6252 4.80157 12.836 4.99375C12.9539 5.10333 13.0507 5.23445 13.1632 5.36204Z" fill="black"/>
</g>
<defs>
<clipPath id="clip0_1_679">
<rect width="13.6296" height="16" fill="white"/>
</clipPath>
</defs>
</svg>
