<svg width="40" height="40" viewBox="0 0 40 40" fill="none" xmlns="http://www.w3.org/2000/svg">
<rect width="40" height="40" rx="20" fill="#0D3685"/>
<path d="M27 15C27 15.18 26.99 15.35 26.97 15.52C26.85 16.97 26.21 18.28 25.24 19.24C24.16 20.33 22.66 21 21 21H17.87C17.37 21 16.95 21.37 16.88 21.86L16.12 27.14C16.06 27.53 15.78 27.85 15.41 27.95C15.32 27.99 15.23 28 15.13 28H13.18C12.56 28 12.09 27.45 12.19 26.84L14.58 12.51C14.82 11.06 16.07 10 17.54 10H22C24.76 10 27 12.24 27 15Z" fill="white"/>
<path d="M29 19.0001C29 20.3801 28.44 21.6302 27.54 22.5402C26.63 23.4402 25.38 24.0001 24 24.0001H21.85C21.36 24.0001 20.94 24.3501 20.86 24.8401L20.14 29.1601C20.06 29.6501 19.64 30.0001 19.15 30.0001H16.22C16.04 30.0001 15.88 29.9602 15.74 29.8802C15.52 29.7602 15.66 29.4701 15.9 29.3701C16.8 29.0801 17.46 28.3102 17.6 27.3502L18.24 22.9301C18.28 22.6801 18.49 22.5001 18.73 22.5001H21C23.01 22.5001 24.9 21.7201 26.3 20.3101C27.13 19.4901 27.75 18.4802 28.11 17.3902C28.19 17.1402 28.52 17.0902 28.63 17.3202C28.87 17.8402 29 18.4001 29 19.0001Z" fill="#179BD7"/>
</svg>
