<svg width="16" height="19" viewBox="0 0 16 19" fill="none" xmlns="http://www.w3.org/2000/svg">
<path d="M15 17.298C15 14.1444 11.8626 11.5937 8 11.5937C4.13737 11.5937 1 14.1444 1 17.298M8 9.14901C9.08063 9.14901 10.117 8.71973 10.8811 7.95562C11.6452 7.1915 12.0745 6.15513 12.0745 5.07451C12.0745 3.99388 11.6452 2.95751 10.8811 2.19339C10.117 1.42928 9.08063 1 8 1C6.91937 1 5.88301 1.42928 5.11889 2.19339C4.35477 2.95751 3.92549 3.99388 3.92549 5.07451C3.92549 6.15513 4.35477 7.1915 5.11889 7.95562C5.88301 8.71973 6.91937 9.14901 8 9.14901V9.14901Z" stroke="#9CA3AF" stroke-width="1.5" stroke-linecap="round" stroke-linejoin="round"/>
</svg>
