<svg width="24" height="24" viewBox="0 0 24 24" fill="none" xmlns="http://www.w3.org/2000/svg">
<g clip-path="url(#clip0_101_727)">
<path d="M19.8239 20.9086L19.4684 21.5242L19.8239 22.1398H20.5348L20.8902 21.5242L20.5348 20.9086H19.8239Z" fill="white"/>
<path d="M20.1793 19.7985C19.838 19.7985 19.5043 19.8997 19.2205 20.0894C18.9367 20.279 18.7155 20.5485 18.5849 20.8639C18.4543 21.1792 18.4202 21.5262 18.4868 21.861C18.5533 22.1957 18.7177 22.5032 18.9591 22.7446C19.2004 22.9859 19.5079 23.1503 19.8427 23.2168C20.1774 23.2834 20.5244 23.2492 20.8398 23.1186C21.1551 22.988 21.4246 22.7668 21.6142 22.483C21.8039 22.1992 21.9051 21.8656 21.9051 21.5242C21.9046 21.0667 21.7226 20.628 21.399 20.3045C21.0755 19.981 20.6368 19.799 20.1793 19.7985ZM21.3638 21.6414L20.873 22.4914C20.8525 22.5271 20.8229 22.5566 20.7872 22.5772C20.7516 22.5978 20.7112 22.6086 20.67 22.6086H19.6885C19.6474 22.6086 19.607 22.5978 19.5713 22.5772C19.5357 22.5566 19.5061 22.527 19.4855 22.4914L18.9948 21.6414C18.9742 21.6058 18.9634 21.5654 18.9634 21.5242C18.9634 21.4831 18.9742 21.4427 18.9948 21.4071L19.4855 20.557C19.5061 20.5214 19.5357 20.4918 19.5713 20.4712C19.607 20.4507 19.6474 20.4398 19.6885 20.4398H20.67C20.7112 20.4398 20.7516 20.4507 20.7872 20.4712C20.8229 20.4918 20.8525 20.5214 20.873 20.557L21.3638 21.4071C21.3843 21.4427 21.3952 21.4831 21.3952 21.5242C21.3952 21.5654 21.3843 21.6058 21.3638 21.6414ZM21.6915 11.2392L19.5618 10.8436C19.5152 10.835 19.4724 10.8124 19.4389 10.779C19.4055 10.7455 19.3829 10.7027 19.3743 10.6561L18.9787 8.52642C18.9717 8.48901 18.974 8.45048 18.9853 8.41415C18.9966 8.37781 19.0165 8.34477 19.0434 8.31787L20.1913 7.17004C19.7054 7.22292 19.2444 7.41209 18.8615 7.71573C18.4785 8.01936 18.1892 8.42509 18.027 8.88608C17.8647 9.34708 17.8361 9.84456 17.9444 10.3211C18.0528 10.7977 18.2936 11.2339 18.6393 11.5794C18.9849 11.925 19.4211 12.1658 19.8977 12.274C20.3743 12.3822 20.8718 12.3535 21.3327 12.1912C21.7937 12.0288 22.1994 11.7394 22.5029 11.3564C22.8065 10.9734 22.9955 10.5123 23.0483 10.0265L21.9 11.1745C21.8731 11.2014 21.8401 11.2214 21.8037 11.2326C21.7674 11.2439 21.7289 11.2462 21.6915 11.2392Z" fill="white"/>
<path d="M21.0585 19.5141V12.7497C20.4678 12.8647 19.8564 12.8038 19.3 12.5746V19.5141C19.5772 19.3925 19.8766 19.3296 20.1793 19.3296C20.482 19.3296 20.7814 19.3925 21.0585 19.5141ZM6.11273 13.462V15.5479C6.11557 16.1957 6.3749 16.8161 6.834 17.2732C7.29309 17.7303 7.91456 17.9869 8.5624 17.9869C9.21024 17.9869 9.8317 17.7303 10.2908 17.2732C10.7499 16.8161 11.0092 16.1957 11.0121 15.5479V13.3849L10.6959 13.2111V14.0214C10.696 14.0769 10.6762 14.1306 10.6403 14.1729C10.3851 14.4741 10.0673 14.716 9.70913 14.882C9.35093 15.0479 8.9609 15.1339 8.56612 15.1339C8.17135 15.1339 7.78131 15.0479 7.42312 14.882C7.06492 14.716 6.74715 14.4741 6.4919 14.1729C6.456 14.1306 6.43629 14.0769 6.43631 14.0214V13.2996L6.11273 13.462ZM8.56242 15.6712C8.62647 15.6712 8.68909 15.6902 8.74235 15.7258C8.7956 15.7614 8.83711 15.8119 8.86163 15.8711C8.88614 15.9303 8.89255 15.9954 8.88006 16.0582C8.86756 16.1211 8.83672 16.1788 8.79142 16.2241C8.74613 16.2693 8.68842 16.3002 8.6256 16.3127C8.56278 16.3252 8.49766 16.3188 8.43848 16.2943C8.37931 16.2697 8.32873 16.2282 8.29314 16.175C8.25755 16.1217 8.23856 16.0591 8.23856 15.9951C8.23865 15.9092 8.2728 15.8269 8.33351 15.7661C8.39423 15.7054 8.47655 15.6713 8.56242 15.6712ZM8.56242 16.8343C8.62647 16.8343 8.68909 16.8533 8.74235 16.8889C8.79561 16.9245 8.83712 16.9751 8.86163 17.0342C8.88614 17.0934 8.89255 17.1585 8.88005 17.2214C8.86755 17.2842 8.8367 17.3419 8.79141 17.3872C8.74611 17.4325 8.6884 17.4633 8.62557 17.4758C8.56275 17.4883 8.49763 17.4819 8.43845 17.4574C8.37927 17.4328 8.3287 17.3913 8.29312 17.3381C8.25754 17.2848 8.23855 17.2222 8.23856 17.1581C8.23866 17.0723 8.27281 16.9899 8.33353 16.9292C8.39424 16.8685 8.47656 16.8344 8.56242 16.8343Z" fill="white"/>
<path d="M6.90469 13.933C7.11555 14.1638 7.37216 14.348 7.65817 14.4741C7.94418 14.6002 8.25331 14.6653 8.56587 14.6653C8.87843 14.6653 9.18757 14.6002 9.47357 14.4741C9.75958 14.348 10.0162 14.1638 10.2271 13.933V12.7035C10.1866 12.728 10.1455 12.7514 10.1038 12.7739C9.65066 13.016 9.14478 13.1427 8.63098 13.1427C8.11718 13.1427 7.6113 13.016 7.15814 12.7739C7.07072 12.727 6.98668 12.6754 6.90469 12.6212V12.8467C6.9181 12.8908 6.9181 12.9379 6.90469 12.982V13.933ZM11.6256 2.73038C11.3368 2.3395 10.9798 2.00405 10.5716 1.74023V1.89717C10.5715 2.47849 10.39 3.04528 10.0523 3.5185C9.71471 3.99171 9.2378 4.34776 8.68814 4.53698C8.64 4.55356 8.58777 4.55398 8.53936 4.5382L8.48114 4.51945C7.92011 4.33803 7.43113 3.98321 7.08465 3.50611C6.73816 3.029 6.55206 2.45424 6.55313 1.86459V1.74117C6.14493 2.00584 5.78794 2.34212 5.49938 2.7338C4.98937 3.43172 4.69726 4.26494 4.65985 5.12855H12.4654C12.4294 4.26357 12.1371 3.42883 11.6256 2.73038ZM4.39768 6.21675H12.7274C12.7684 6.21725 12.809 6.20962 12.8471 6.19428C12.8851 6.17894 12.9197 6.1562 12.9488 6.12739C12.978 6.09858 13.0012 6.06427 13.017 6.02644C13.0328 5.98861 13.0409 5.94802 13.0409 5.90702C13.0409 5.86603 13.0328 5.82544 13.017 5.78761C13.0012 5.74978 12.978 5.71546 12.9488 5.68665C12.9197 5.65784 12.8851 5.63511 12.8471 5.61977C12.809 5.60443 12.7684 5.59679 12.7274 5.5973H4.39768C4.31619 5.5983 4.23838 5.63137 4.18112 5.68935C4.12385 5.74732 4.09174 5.82553 4.09174 5.90702C4.09174 5.98851 4.12385 6.06672 4.18112 6.1247C4.23838 6.18267 4.31619 6.21575 4.39768 6.21675Z" fill="white"/>
<path d="M8.60797 4.06747C9.04761 3.89965 9.42594 3.60229 9.69288 3.21475C9.95983 2.8272 10.1028 2.36774 10.1029 1.89715V1.48245C9.9136 1.39502 9.71713 1.32404 9.51565 1.27029C9.4617 1.25595 9.41463 1.22282 9.38293 1.17686C9.35123 1.1309 9.33697 1.07514 9.34273 1.01961L9.37086 0.750122H7.75414L7.78226 1.01961C7.78802 1.07514 7.77377 1.1309 7.74207 1.17686C7.71037 1.22282 7.6633 1.25595 7.60934 1.27029C7.40778 1.32406 7.21124 1.39514 7.0219 1.48273V1.86458C7.02105 2.3519 7.17385 2.82709 7.4586 3.22258C7.74335 3.61806 8.14553 3.91371 8.60797 4.06747ZM8.10739 1.59842H9.11642C9.17858 1.59842 9.23819 1.62311 9.28215 1.66707C9.3261 1.71102 9.3508 1.77063 9.35079 1.83279C9.3508 1.89495 9.3261 1.95457 9.28215 1.99852C9.23819 2.04248 9.17858 2.06717 9.11642 2.06717H8.10739C8.04523 2.06717 7.98561 2.04248 7.94166 1.99852C7.89771 1.95457 7.87301 1.89495 7.87301 1.83279C7.87301 1.77063 7.89771 1.71102 7.94166 1.66707C7.98561 1.62311 8.04523 1.59842 8.10739 1.59842ZM8.10739 2.5287H9.11642C9.17858 2.5287 9.23819 2.55339 9.28215 2.59735C9.3261 2.6413 9.3508 2.70091 9.35079 2.76308C9.3508 2.82524 9.3261 2.88485 9.28215 2.9288C9.23819 2.97276 9.17858 2.99745 9.11642 2.99745H8.10739C8.04523 2.99745 7.98561 2.97276 7.94166 2.9288C7.89771 2.88485 7.87301 2.82524 7.87301 2.76308C7.87301 2.70091 7.89771 2.6413 7.94166 2.59735C7.98561 2.55339 8.04523 2.5287 8.10739 2.5287ZM11.5055 8.86132C11.5141 8.80613 11.5422 8.75584 11.5847 8.71952C11.6271 8.6832 11.6811 8.66324 11.737 8.66323H11.8922C11.9682 8.66329 12.0422 8.63843 12.1027 8.59246C12.1633 8.54648 12.2071 8.48193 12.2274 8.40868C12.2478 8.33543 12.2436 8.25753 12.2154 8.18691C12.1873 8.11628 12.1368 8.05684 12.0716 8.01767C12.0339 8.02267 11.9956 8.01754 11.9606 8.00281C11.9395 7.9941 11.9199 7.9823 11.9022 7.96779C11.8989 7.96779 11.8956 7.96728 11.8922 7.96728H11.7369C11.6748 7.96728 11.6151 7.94258 11.5712 7.89863C11.5272 7.85468 11.5025 7.79506 11.5025 7.7329V6.68548H5.75979V7.7329C5.75979 7.79506 5.7351 7.85468 5.69115 7.89863C5.64719 7.94258 5.58758 7.96728 5.52542 7.96728H5.37003C5.32399 7.96674 5.27831 7.97535 5.23562 7.9926C5.19293 8.00985 5.15409 8.03539 5.12135 8.06776C5.08861 8.10012 5.06261 8.13866 5.04487 8.18115C5.02713 8.22363 5.01799 8.26921 5.01799 8.31525C5.01799 8.36129 5.02713 8.40688 5.04487 8.44936C5.06261 8.49184 5.08861 8.53039 5.12135 8.56275C5.15409 8.59512 5.19293 8.62066 5.23562 8.63791C5.27831 8.65516 5.32399 8.66376 5.37003 8.66323H5.52533C5.58119 8.66324 5.63522 8.6832 5.67767 8.71952C5.72012 8.75584 5.74819 8.80613 5.75684 8.86132L6.00186 10.4242C6.10011 11.0509 6.41902 11.622 6.90111 12.0344C7.3832 12.4468 7.99675 12.6734 8.63117 12.6734C9.26559 12.6734 9.87914 12.4468 10.3612 12.0344C10.8433 11.622 11.1622 11.0509 11.2605 10.4242L11.5055 8.86132ZM12.116 6.68548H11.9713V7.29125C12.0317 7.09243 12.08 6.89014 12.116 6.68548ZM5.27023 7.50532C5.27717 7.50448 5.28392 7.50303 5.29095 7.50232V6.68548H4.98856C5.03176 6.86841 5.08827 7.04793 5.15764 7.22262L5.27023 7.50532ZM13.8371 14.4817V23.25H16.173V17.7314C16.1752 17.0128 15.9506 16.3118 15.5312 15.7283C15.1118 15.1448 14.5189 14.7086 13.8371 14.4817ZM11.4808 15.5477C11.4777 16.3197 11.1689 17.059 10.6219 17.6038C10.075 18.1485 9.33442 18.4544 8.56243 18.4544C7.79044 18.4544 7.04989 18.1485 6.50292 17.6038C5.95595 17.059 5.64711 16.3197 5.64401 15.5477V13.6926C5.03707 13.9718 4.40513 14.1931 3.75659 14.3535V23.25H6.01409V20.2937C6.01409 20.2533 6.02452 20.2136 6.04437 20.1785C6.06423 20.1433 6.09283 20.1139 6.1274 20.093C6.16198 20.0722 6.20136 20.0606 6.24172 20.0594C6.28208 20.0583 6.32206 20.0676 6.35778 20.0864C7.10935 20.4827 7.94591 20.6905 8.79555 20.6921C9.6452 20.6937 10.4825 20.4889 11.2355 20.0954C11.2713 20.0768 11.3112 20.0677 11.3514 20.069C11.3916 20.0703 11.4309 20.082 11.4653 20.1029C11.4997 20.1237 11.5282 20.1531 11.548 20.1882C11.5677 20.2233 11.5781 20.2629 11.5782 20.3031V23.25H13.3683V14.3536C12.716 14.1784 12.0836 13.9365 11.4808 13.6317V15.5477Z" fill="white"/>
<path d="M6.48283 20.6679V23.25H11.1094V20.6758C10.3802 20.9969 9.59201 21.1621 8.79527 21.1608C7.99853 21.1594 7.21088 20.9915 6.48283 20.6679ZM0.951859 17.7314V23.25H3.28783V14.4817C2.60598 14.7086 2.01312 15.1448 1.59369 15.7283C1.17426 16.3118 0.949648 17.0128 0.951859 17.7314Z" fill="white"/>
</g>
<defs>
<clipPath id="clip0_101_727">
<rect width="24" height="24" fill="white"/>
</clipPath>
</defs>
</svg>
