<svg width="25" height="24" viewBox="0 0 25 24" fill="none" xmlns="http://www.w3.org/2000/svg">
<g clip-path="url(#clip0_676_9813)">
<path d="M8.27737 18.9578L19.4579 7.77729C20.7936 8.15377 22.288 7.81732 23.3392 6.76619C24.5106 5.59481 24.7955 3.8727 24.1938 2.43356L21.6002 5.02718L19.4729 2.89987L22.0665 0.306257C20.6274 -0.295464 18.9053 -0.0104705 17.7339 1.16091C16.6689 2.22593 16.3367 3.74619 16.7373 5.09521L5.59533 16.2372C4.24626 15.8366 2.726 16.1688 1.66103 17.2338C0.489652 18.4052 0.204658 20.1273 0.806379 21.5664L3.39999 18.9728L5.5273 21.1001L2.93368 23.6937C4.37282 24.2954 6.09493 24.0104 7.26631 22.8391C8.31739 21.788 8.65385 20.2936 8.27737 18.9578Z" fill="white"/>
</g>
<defs>
<clipPath id="clip0_676_9813">
<rect width="24" height="24" fill="white" transform="translate(0.5)"/>
</clipPath>
</defs>
</svg>
